<svg xmlns="http://www.w3.org/2000/svg" id="SvgjsSvg28385" width="4096" height="1943.8970624609665" version="1.1" xmlns:xlink="http://www.w3.org/1999/xlink" xmlns:svgjs="http://svgjs.com/svgjs"><defs id="SvgjsDefs28386"></defs><g id="SvgjsG28387" transform="translate(328, 328) scale(34.4)" opacity="1"><defs id="SvgjsDefs13054"></defs><g id="SvgjsG13055" transform="scale(0.21645021645021645)" opacity="1"><g id="SvgjsG13056" class="icX0oBlgq" transform="translate(162.79123074934023, -10.810332051015676) scale(1.5157504277924396)" light-content="false" fill="#104050"><path d="M7.132 7.132v60.211h6.703V13.835h62.33v62.329H19.253v.002H7.132v6.701h75.736V7.132z"></path></g><g id="SvgjsG13057" class="text" transform="translate(228.72, 172.10992859794038) scale(1)" light-content="false" fill="#004050"><path d="M-218.09 0.34C-211.79 0.34 -207.2 -0.65 -204.3 -2.64C-201.4 -4.64 -199.94 -7.6 -199.94 -11.55C-199.94 -14.24 -200.63 -16.32 -201.99 -17.8C-203.36 -19.28 -205.2 -20.36 -207.51 -21.04C-205.8 -21.73 -204.44 -22.76 -203.41 -24.14C-202.39 -25.53 -201.88 -27.3 -201.88 -29.46C-201.88 -31.4 -202.3 -33.03 -203.13 -34.35C-203.96 -35.68 -205.11 -36.75 -206.57 -37.57C-208.03 -38.38 -209.76 -38.96 -211.75 -39.3C-213.74 -39.64 -215.87 -39.81 -218.14 -39.81C-218.94 -39.81 -219.79 -39.79 -220.7 -39.76C-221.61 -39.72 -222.53 -39.66 -223.46 -39.59C-224.39 -39.51 -225.31 -39.41 -226.22 -39.3C-227.13 -39.19 -227.97 -39.04 -228.72 -38.85L-228.72 -0.63C-227.97 -0.44 -227.13 -0.28 -226.22 -0.17C-225.31 -0.06 -224.39 0.04 -223.46 0.11C-222.53 0.19 -221.6 0.25 -220.68 0.28C-219.75 0.32 -218.88 0.34 -218.09 0.34ZM-223.26 -18.37L-216.15 -18.37C-214.56 -18.37 -213.12 -18.26 -211.83 -18.03C-210.54 -17.8 -209.43 -17.42 -208.5 -16.89C-207.58 -16.36 -206.86 -15.65 -206.37 -14.76C-205.88 -13.87 -205.63 -12.78 -205.63 -11.49C-205.63 -10.05 -205.96 -8.85 -206.63 -7.91C-207.29 -6.96 -208.17 -6.22 -209.27 -5.69C-210.37 -5.16 -211.65 -4.79 -213.11 -4.58C-214.57 -4.37 -216.12 -4.27 -217.75 -4.27C-218.62 -4.27 -219.39 -4.28 -220.05 -4.29C-220.71 -4.31 -221.29 -4.34 -221.78 -4.38C-222.35 -4.42 -222.85 -4.46 -223.26 -4.49ZM-223.26 -22.81L-223.26 -34.98C-222.62 -35.05 -221.9 -35.11 -221.1 -35.15C-220.31 -35.19 -219.21 -35.21 -217.8 -35.21C-216.4 -35.21 -215.07 -35.09 -213.82 -34.86C-212.57 -34.64 -211.48 -34.29 -210.55 -33.81C-209.62 -33.34 -208.89 -32.71 -208.36 -31.94C-207.83 -31.16 -207.57 -30.2 -207.57 -29.06C-207.57 -27.85 -207.82 -26.85 -208.33 -26.05C-208.85 -25.25 -209.55 -24.61 -210.44 -24.12C-211.33 -23.62 -212.38 -23.28 -213.59 -23.09C-214.81 -22.9 -216.1 -22.81 -217.46 -22.81Z M-192.15 -39.41L-192.15 0L-186.64 0L-186.64 -39.41Z M-149.84 0L-145.23 0L-145.23 -39.41L-150.63 -39.41L-150.63 -10.24C-151.85 -12.25 -153.34 -14.54 -155.1 -17.12C-156.86 -19.7 -158.74 -22.32 -160.73 -25C-162.72 -27.67 -164.73 -30.27 -166.76 -32.79C-168.79 -35.31 -170.69 -37.52 -172.47 -39.41L-176.85 -39.41L-176.85 0L-171.45 0L-171.45 -30.77C-170.39 -29.56 -169.23 -28.15 -167.98 -26.56C-166.73 -24.97 -165.44 -23.27 -164.11 -21.47C-162.79 -19.67 -161.45 -17.8 -160.1 -15.87C-158.76 -13.93 -157.46 -12.03 -156.21 -10.15C-154.96 -8.28 -153.79 -6.46 -152.71 -4.72C-151.63 -2.98 -150.67 -1.4 -149.84 0Z M-109.12 0L-103.09 0C-104.6 -4.17 -106.02 -8.03 -107.35 -11.57C-108.68 -15.12 -109.98 -18.48 -111.25 -21.67C-112.52 -24.85 -113.78 -27.9 -115.03 -30.8C-116.28 -33.7 -117.59 -36.57 -118.95 -39.41L-124.02 -39.41C-125.38 -36.57 -126.69 -33.7 -127.94 -30.8C-129.19 -27.9 -130.45 -24.85 -131.72 -21.67C-132.99 -18.48 -134.29 -15.12 -135.62 -11.57C-136.95 -8.03 -138.37 -4.17 -139.88 0L-134.14 0L-130.56 -10.07L-112.7 -10.07C-112.09 -8.36 -111.5 -6.68 -110.94 -5.03C-110.37 -3.38 -109.76 -1.71 -109.12 0ZM-114.29 -14.62L-128.96 -14.62C-127.79 -17.92 -126.6 -21.11 -125.41 -24.2C-124.22 -27.29 -122.95 -30.26 -121.63 -33.1C-120.34 -30.26 -119.1 -27.29 -117.9 -24.2C-116.71 -21.11 -115.5 -17.92 -114.29 -14.62Z M-78.46 -16.49C-75.77 -17.4 -73.73 -18.79 -72.35 -20.65C-70.96 -22.5 -70.27 -24.74 -70.27 -27.36C-70.27 -31.49 -71.72 -34.6 -74.62 -36.68C-77.52 -38.77 -81.74 -39.81 -87.28 -39.81C-88.87 -39.81 -90.62 -39.75 -92.54 -39.61C-94.45 -39.48 -96.19 -39.22 -97.74 -38.85L-97.74 0L-92.22 0L-92.22 -15.41L-87.28 -15.41L-85.71 -15.41C-85.2 -15.41 -84.7 -15.43 -84.2 -15.47C-83.48 -14.6 -82.68 -13.57 -81.79 -12.4C-80.9 -11.22 -80 -9.96 -79.09 -8.62C-78.18 -7.27 -77.27 -5.86 -76.38 -4.38C-75.49 -2.9 -74.67 -1.44 -73.91 0L-67.88 0C-68.56 -1.52 -69.39 -3.09 -70.35 -4.72C-71.32 -6.35 -72.3 -7.92 -73.28 -9.41C-74.27 -10.91 -75.23 -12.28 -76.16 -13.51C-77.08 -14.74 -77.85 -15.74 -78.46 -16.49ZM-86.82 -34.98C-85.34 -34.98 -83.95 -34.86 -82.64 -34.64C-81.33 -34.41 -80.19 -34.01 -79.23 -33.44C-78.26 -32.87 -77.49 -32.1 -76.92 -31.11C-76.36 -30.12 -76.07 -28.89 -76.07 -27.41C-76.07 -25.82 -76.36 -24.54 -76.92 -23.57C-77.49 -22.61 -78.3 -21.86 -79.34 -21.33C-80.38 -20.8 -81.66 -20.44 -83.18 -20.25C-84.7 -20.06 -86.4 -19.96 -88.3 -19.96L-92.22 -19.96L-92.22 -34.81C-90.97 -34.92 -89.17 -34.98 -86.82 -34.98Z M-53.66 0L-48.14 0L-48.14 -15.93C-45.57 -19.94 -43.12 -23.92 -40.81 -27.84C-38.5 -31.76 -36.31 -35.62 -34.27 -39.41L-40.41 -39.41C-41.89 -36.31 -43.52 -33.15 -45.3 -29.94C-47.08 -26.74 -48.9 -23.66 -50.76 -20.7C-52.66 -23.66 -54.5 -26.74 -56.28 -29.94C-58.06 -33.15 -59.67 -36.31 -61.11 -39.41L-67.6 -39.41C-65.55 -35.62 -63.37 -31.76 -61.06 -27.81C-58.74 -23.87 -56.28 -19.87 -53.66 -15.81Z M-6.74 -3.92C-9.32 -3.92 -11.5 -4.23 -13.28 -4.83C-15.06 -5.44 -16.39 -5.99 -17.26 -6.48L-18.91 -1.93C-18.49 -1.71 -17.92 -1.43 -17.18 -1.11C-16.44 -0.79 -15.56 -0.48 -14.53 -0.2C-13.51 0.09 -12.34 0.33 -11.03 0.54C-9.73 0.75 -8.29 0.85 -6.74 0.85C-2.15 0.85 1.4 -0.08 3.92 -1.93C6.45 -3.79 7.71 -6.45 7.71 -9.9C7.71 -11.75 7.42 -13.34 6.85 -14.65C6.28 -15.95 5.48 -17.08 4.44 -18.03C3.39 -18.98 2.16 -19.79 0.74 -20.48C-0.68 -21.16 -2.25 -21.84 -3.95 -22.52C-5.17 -22.98 -6.28 -23.43 -7.28 -23.89C-8.28 -24.34 -9.17 -24.84 -9.92 -25.39C-10.68 -25.94 -11.27 -26.58 -11.69 -27.3C-12.1 -28.02 -12.31 -28.91 -12.31 -29.97C-12.31 -30.92 -12.11 -31.75 -11.72 -32.45C-11.32 -33.15 -10.78 -33.73 -10.1 -34.18C-9.41 -34.64 -8.62 -34.98 -7.71 -35.21C-6.8 -35.43 -5.81 -35.55 -4.75 -35.55C-2.66 -35.55 -0.83 -35.31 0.74 -34.84C2.31 -34.36 3.5 -33.88 4.29 -33.39L6.06 -37.88C5.15 -38.49 3.72 -39.04 1.76 -39.56C-0.19 -40.07 -2.36 -40.32 -4.75 -40.32C-8.88 -40.32 -12.12 -39.36 -14.47 -37.42C-16.83 -35.49 -18 -32.8 -18 -29.35C-18 -27.68 -17.73 -26.26 -17.18 -25.08C-16.63 -23.91 -15.88 -22.89 -14.93 -22.04C-13.98 -21.19 -12.86 -20.45 -11.57 -19.82C-10.28 -19.2 -8.92 -18.64 -7.48 -18.14C-6.23 -17.69 -5.04 -17.23 -3.92 -16.78C-2.81 -16.32 -1.81 -15.78 -0.94 -15.16C-0.07 -14.53 0.63 -13.79 1.14 -12.94C1.65 -12.09 1.91 -11.05 1.91 -9.84C1.91 -5.9 -0.98 -3.92 -6.74 -3.92Z M14.36 0L39.84 0L39.84 -4.72L19.88 -4.72L19.88 -18.37L36.37 -18.37L36.37 -22.98L19.88 -22.98L19.88 -34.69L38.42 -34.69L38.42 -39.41L14.36 -39.41Z M62.19 0.85C63.79 0.85 65.26 0.76 66.63 0.57C67.99 0.38 69.19 0.15 70.21 -0.11C71.24 -0.38 72.09 -0.65 72.77 -0.94C73.45 -1.22 73.93 -1.46 74.19 -1.65L72.77 -6.2C71.94 -5.78 70.69 -5.31 69.02 -4.78C67.35 -4.25 65.25 -3.98 62.7 -3.98C60.51 -3.98 58.58 -4.36 56.93 -5.12C55.28 -5.88 53.91 -6.95 52.81 -8.33C51.71 -9.72 50.88 -11.38 50.33 -13.31C49.78 -15.24 49.51 -17.38 49.51 -19.74C49.51 -22.16 49.82 -24.35 50.45 -26.3C51.07 -28.26 51.97 -29.92 53.15 -31.28C54.33 -32.65 55.75 -33.69 57.42 -34.41C59.08 -35.13 60.96 -35.49 63.05 -35.49C64.03 -35.49 65.01 -35.4 65.98 -35.23C66.94 -35.06 67.83 -34.85 68.65 -34.58C69.46 -34.32 70.19 -34.05 70.84 -33.78C71.48 -33.52 71.98 -33.27 72.32 -33.04L73.91 -37.59C73.68 -37.75 73.26 -37.97 72.66 -38.28C72.05 -38.58 71.26 -38.88 70.3 -39.19C69.33 -39.49 68.19 -39.76 66.89 -39.98C65.58 -40.21 64.11 -40.32 62.48 -40.32C59.9 -40.32 57.47 -39.87 55.2 -38.96C52.92 -38.05 50.93 -36.72 49.23 -34.98C47.52 -33.23 46.16 -31.08 45.16 -28.52C44.15 -25.96 43.65 -23.03 43.65 -19.74C43.65 -16.44 44.1 -13.51 44.99 -10.95C45.88 -8.39 47.14 -6.24 48.77 -4.49C50.4 -2.75 52.35 -1.42 54.63 -0.51C56.9 0.4 59.43 0.85 62.19 0.85Z M95.18 0.85C97.76 0.85 99.99 0.46 101.86 -0.34C103.74 -1.14 105.3 -2.23 106.53 -3.61C107.76 -5 108.67 -6.64 109.26 -8.53C109.85 -10.43 110.14 -12.47 110.14 -14.67L110.14 -39.41L104.62 -39.41L104.62 -15.3C104.62 -13.33 104.39 -11.63 103.94 -10.21C103.48 -8.79 102.84 -7.62 102.01 -6.71C101.17 -5.8 100.18 -5.13 99.02 -4.69C97.86 -4.26 96.58 -4.04 95.18 -4.04C92.37 -4.04 90.1 -4.93 88.36 -6.71C86.61 -8.49 85.74 -11.36 85.74 -15.3L85.74 -39.41L80.22 -39.41L80.22 -14.67C80.22 -12.47 80.52 -10.43 81.1 -8.53C81.69 -6.64 82.59 -5 83.81 -3.61C85.02 -2.23 86.57 -1.14 88.47 -0.34C90.37 0.46 92.6 0.85 95.18 0.85Z M138.92 -16.49C141.61 -17.4 143.65 -18.79 145.03 -20.65C146.42 -22.5 147.11 -24.74 147.11 -27.36C147.11 -31.49 145.66 -34.6 142.76 -36.68C139.86 -38.77 135.64 -39.81 130.1 -39.81C128.51 -39.81 126.76 -39.75 124.84 -39.61C122.93 -39.48 121.19 -39.22 119.64 -38.85L119.64 0L125.15 0L125.15 -15.41L130.1 -15.41L131.67 -15.41C132.18 -15.41 132.68 -15.43 133.17 -15.47C133.89 -14.6 134.7 -13.57 135.59 -12.4C136.48 -11.22 137.38 -9.96 138.29 -8.62C139.2 -7.27 140.1 -5.86 140.99 -4.38C141.88 -2.9 142.71 -1.44 143.47 0L149.5 0C148.81 -1.52 147.99 -3.09 147.02 -4.72C146.06 -6.35 145.08 -7.92 144.09 -9.41C143.11 -10.91 142.15 -12.28 141.22 -13.51C140.29 -14.74 139.52 -15.74 138.92 -16.49ZM130.56 -34.98C132.04 -34.98 133.43 -34.86 134.74 -34.64C136.05 -34.41 137.18 -34.01 138.15 -33.44C139.12 -32.87 139.88 -32.1 140.45 -31.11C141.02 -30.12 141.31 -28.89 141.31 -27.41C141.31 -25.82 141.02 -24.54 140.45 -23.57C139.88 -22.61 139.08 -21.86 138.04 -21.33C136.99 -20.8 135.71 -20.44 134.2 -20.25C132.68 -20.06 130.97 -19.96 129.08 -19.96L125.15 -19.96L125.15 -34.81C126.41 -34.92 128.21 -34.98 130.56 -34.98Z M155.41 -39.41L155.41 0L160.93 0L160.93 -39.41Z M197.04 -39.41L166.73 -39.41L166.73 -34.64L179.13 -34.64L179.13 0L184.65 0L184.65 -34.64L197.04 -34.64Z M213.88 0L219.4 0L219.4 -15.93C221.97 -19.94 224.42 -23.92 226.73 -27.84C229.05 -31.76 231.23 -35.62 233.27 -39.41L227.13 -39.41C225.65 -36.31 224.02 -33.15 222.24 -29.94C220.46 -26.74 218.64 -23.66 216.78 -20.7C214.88 -23.66 213.05 -26.74 211.26 -29.94C209.48 -33.15 207.87 -36.31 206.43 -39.41L199.94 -39.41C201.99 -35.62 204.17 -31.76 206.49 -27.81C208.8 -23.87 211.26 -19.87 213.88 -15.81Z"></path></g></g></g></svg>