<?xml version="1.0" encoding="UTF-8" standalone="no"?>
<!-- Created with Inkscape (http://www.inkscape.org/) -->

<svg
   version="1.1"
   id="svg2"
   width="568.97998"
   height="188.35867"
   viewBox="0 0 568.97998 188.35867"
   sodipodi:docname="2021-09 Defendable logo-RGB.ai"
   xmlns:inkscape="http://www.inkscape.org/namespaces/inkscape"
   xmlns:sodipodi="http://sodipodi.sourceforge.net/DTD/sodipodi-0.dtd"
   xmlns="http://www.w3.org/2000/svg"
   xmlns:svg="http://www.w3.org/2000/svg">
  <defs
     id="defs6">
    <clipPath
       clipPathUnits="userSpaceOnUse"
       id="clipPath20">
      <path
         d="M 0,141.269 H 426.735 V 0 H 0 Z"
         id="path18" />
    </clipPath>
  </defs>
  <sodipodi:namedview
     id="namedview4"
     pagecolor="#ffffff"
     bordercolor="#000000"
     borderopacity="0.25"
     inkscape:showpageshadow="2"
     inkscape:pageopacity="0.0"
     inkscape:pagecheckerboard="0"
     inkscape:deskcolor="#d1d1d1" />
  <g
     id="g8"
     inkscape:groupmode="layer"
     inkscape:label="2021-09 Defendable logo-RGB"
     transform="matrix(1.3333333,0,0,-1.3333333,0,188.35867)">
    <g
       id="g10"
       transform="translate(56.4344,19.0933)">
      <path
         d="M 0,0 H -34.095 V 102.642 H 0 V 93.381 H -24.834 V 9.262 H 0 Z"
         style="fill:#00dc69;fill-opacity:1;fill-rule:nonzero;stroke:none"
         id="path12" />
    </g>
    <g
       id="g14">
      <g
         id="g16"
         clip-path="url(#clipPath20)">
        <g
           id="g22"
           transform="translate(72.1039,56.0148)">
          <path
             d="m 0,0 c 8.066,0 11.608,5.62 11.608,14.235 0,8.677 -3.542,14.237 -11.668,14.237 H -6.783 V 0 Z M -15.581,36.171 H 0.06 c 13.077,0 20.469,-8.555 20.469,-21.936 0,-13.38 -7.392,-21.934 -20.469,-21.934 h -15.641 z"
             style="fill:#003232;fill-opacity:1;fill-rule:nonzero;stroke:none"
             id="path24" />
        </g>
        <g
           id="g26"
           transform="translate(105.6522,68.2948)">
          <path
             d="M 0,0 H 14.175 C 14.115,3.177 11.914,5.927 7.515,5.927 3.85,5.927 1.038,3.91 0,0 m -8.738,-3.91 c 0,9.47 6.843,16.68 16.253,16.68 9.898,0 15.152,-7.088 15.152,-16.069 V -5.804 H -0.366 c 0.611,-4.888 3.788,-7.821 8.247,-7.821 3.607,0 6.417,1.588 7.455,4.705 l 7.148,-2.567 c -2.383,-5.865 -8.064,-9.164 -14.724,-9.164 -9.715,0 -16.498,6.782 -16.498,16.741"
             style="fill:#003232;fill-opacity:1;fill-rule:nonzero;stroke:none"
             id="path28" />
        </g>
        <g
           id="g30"
           transform="translate(132.661,48.3158)">
          <path
             d="M 0,0 V 7.149 H 9.164 V 24.867 H 0 v 7.087 h 9.164 c 0,8.677 6.032,12.67 14.464,12.67 2.87,0 5.937,-0.169 7.832,-0.596 l 0.006,-7.03 c -2.018,0.305 -4.339,0.456 -7.272,0.456 -4.337,0 -6.477,-1.711 -6.477,-5.5 H 31.466 V 24.867 H 17.717 V 7.149 H 29.144 V 0 Z"
             style="fill:#003232;fill-opacity:1;fill-rule:nonzero;stroke:none"
             id="path32" />
        </g>
        <g
           id="g34"
           transform="translate(176.3981,68.2948)">
          <path
             d="M 0,0 H 14.175 C 14.115,3.177 11.914,5.927 7.515,5.927 3.85,5.927 1.038,3.91 0,0 m -8.738,-3.91 c 0,9.47 6.843,16.68 16.253,16.68 9.898,0 15.152,-7.088 15.152,-16.069 V -5.804 H -0.366 c 0.611,-4.888 3.788,-7.821 8.247,-7.821 3.607,0 6.417,1.588 7.455,4.705 l 7.148,-2.567 c -2.383,-5.865 -8.064,-9.164 -14.724,-9.164 -9.715,0 -16.498,6.782 -16.498,16.741"
             style="fill:#003232;fill-opacity:1;fill-rule:nonzero;stroke:none"
             id="path36" />
        </g>
        <g
           id="g38"
           transform="translate(205.1166,80.4543)">
          <path
             d="m 0,0 h 8.553 v -3.3 c 1.772,2.077 4.705,3.91 8.798,3.91 6.72,0 10.816,-4.582 10.816,-11.548 v -21.201 h -8.555 v 18.758 c 0,3.605 -1.466,6.171 -5.131,6.171 -2.933,0 -5.928,-2.138 -5.928,-6.354 V -32.139 H 0 Z"
             style="fill:#003232;fill-opacity:1;fill-rule:nonzero;stroke:none"
             id="path40" />
        </g>
        <g
           id="g42"
           transform="translate(254.1189,73.7329)">
          <path
             d="m 0,0 c -4.399,0 -6.781,-3.849 -6.781,-9.348 0,-5.56 2.382,-9.409 6.781,-9.409 3.727,0 6.6,3.054 6.6,8.492 v 1.773 C 6.6,-2.994 3.727,0 0,0 m -15.336,-9.348 c 0,9.104 4.828,16.68 13.26,16.68 3.788,0 6.721,-1.588 8.493,-3.91 v 15.03 H 14.97 V -25.417 H 6.417 v 3.3 c -1.772,-2.384 -4.705,-3.972 -8.493,-3.972 -8.432,0 -13.26,7.576 -13.26,16.741"
             style="fill:#003232;fill-opacity:1;fill-rule:nonzero;stroke:none"
             id="path44" />
        </g>
        <g
           id="g46"
           transform="translate(295.2514,63.1012)">
          <path
             d="m 0,0 -6.843,-1.282 c -2.87,-0.489 -5.131,-1.528 -5.131,-4.095 0,-2.198 1.772,-3.482 4.459,-3.482 3.727,0 7.515,1.894 7.515,5.499 z m -20.406,-5.865 c 0,6.415 5.193,9.165 11.853,10.264 L 0,5.927 v 0.489 c 0,2.749 -1.649,4.522 -5.314,4.522 -3.239,0 -5.254,-1.528 -6.049,-4.4 l -8.066,1.588 c 1.529,5.438 6.6,9.838 14.481,9.838 8.249,0 13.32,-3.728 13.32,-11.181 V -6.354 c 0,-1.71 0.732,-2.26 2.75,-2.016 v -6.415 c -5.623,-0.795 -8.982,0.244 -10.45,2.994 -2.138,-2.261 -5.497,-3.545 -9.836,-3.545 -6.475,0 -11.242,3.789 -11.242,9.471"
             style="fill:#003232;fill-opacity:1;fill-rule:nonzero;stroke:none"
             id="path48" />
        </g>
        <g
           id="g50"
           transform="translate(321.3654,63.4683)">
          <path
             d="m 0,0 c 0,-5.438 2.872,-8.492 6.6,-8.492 4.399,0 6.783,3.848 6.783,9.408 0,5.5 -2.384,9.349 -6.783,9.349 C 2.872,10.265 0,7.27 0,1.772 Z m 0.183,-11.853 v -3.3 H -8.37 v 43.87 H 0.183 V 13.686 c 1.772,2.322 4.705,3.91 8.495,3.91 8.43,0 13.257,-7.576 13.257,-16.68 0,-9.164 -4.827,-16.74 -13.257,-16.74 -3.79,0 -6.723,1.588 -8.495,3.971"
             style="fill:#003232;fill-opacity:1;fill-rule:nonzero;stroke:none"
             id="path52" />
        </g>
        <g
           id="g54"
           transform="translate(346.1559,55.4646)">
          <path
             d="M 0,0 H 10.939 V 29.572 H 0.245 v 7.149 H 19.491 V 0 h 10.51 V -7.149 H 0 Z"
             style="fill:#003232;fill-opacity:1;fill-rule:nonzero;stroke:none"
             id="path56" />
        </g>
        <g
           id="g58"
           transform="translate(387.3264,68.2948)">
          <path
             d="M 0,0 H 14.175 C 14.115,3.177 11.916,5.927 7.515,5.927 3.85,5.927 1.04,3.91 0,0 m -8.736,-3.91 c 0,9.47 6.843,16.68 16.251,16.68 9.898,0 15.155,-7.088 15.155,-16.069 V -5.804 H -0.366 c 0.611,-4.888 3.788,-7.821 8.249,-7.821 3.605,0 6.415,1.588 7.453,4.705 l 7.148,-2.567 c -2.381,-5.865 -8.064,-9.164 -14.724,-9.164 -9.715,0 -16.496,6.782 -16.496,16.741"
             style="fill:#003232;fill-opacity:1;fill-rule:nonzero;stroke:none"
             id="path60" />
        </g>
      </g>
    </g>
  </g>
</svg>
