<?xml version="1.0" encoding="UTF-8"?>
<svg id="Layer_1" data-name="Layer 1" xmlns="http://www.w3.org/2000/svg" xmlns:xlink="http://www.w3.org/1999/xlink" viewBox="0 0 658.2 550.4">
  <defs>
    <style>
      .cls-1, .cls-2, .cls-3, .cls-4, .cls-5 {
        fill: none;
      }

      .cls-6, .cls-4 {
        font-family: AlternateGotNo1D, 'Alternate Gothic No1 D';
        font-size: 106.1px;
      }

      .cls-6, .cls-7 {
        fill: #af002e;
      }

      .cls-8 {
        fill: url(#linear-gradient-8);
      }

      .cls-9 {
        fill: url(#linear-gradient-7);
      }

      .cls-10 {
        fill: url(#linear-gradient-5);
      }

      .cls-11 {
        fill: url(#linear-gradient-6);
      }

      .cls-12 {
        fill: url(#linear-gradient-9);
      }

      .cls-13 {
        fill: url(#linear-gradient-4);
      }

      .cls-14 {
        fill: url(#linear-gradient-3);
      }

      .cls-15 {
        fill: url(#linear-gradient-2);
      }

      .cls-16 {
        fill: url(#linear-gradient);
      }

      .cls-17 {
        fill: #fff;
      }

      .cls-17, .cls-2 {
        opacity: .5;
      }

      .cls-2, .cls-3, .cls-4, .cls-5 {
        stroke: #fff;
        stroke-linejoin: round;
        stroke-width: 60px;
      }

      .cls-3 {
        stroke-linecap: round;
      }

      .cls-18 {
        fill: #ffa300;
      }

      .cls-19 {
        fill: url(#linear-gradient-10);
      }

      .cls-20 {
        fill: #492424;
      }

      .cls-21 {
        fill: #f79200;
      }

      .cls-22 {
        fill: #ed6b00;
      }

      .cls-23 {
        letter-spacing: 0em;
      }

      .cls-24 {
        letter-spacing: 0em;
      }

      .cls-25 {
        letter-spacing: 0em;
      }
    </style>
    <linearGradient id="linear-gradient" x1="341.1" y1="128.3" x2="416.3" y2="128.3" gradientUnits="userSpaceOnUse">
      <stop offset="0" stop-color="#ce3d16"/>
      <stop offset="1" stop-color="#ce6700"/>
    </linearGradient>
    <linearGradient id="linear-gradient-2" x1="380.5" y1="237.7" x2="628.2" y2="237.7" gradientUnits="userSpaceOnUse">
      <stop offset="0" stop-color="#ffa300"/>
      <stop offset="1" stop-color="#ffa300"/>
    </linearGradient>
    <linearGradient id="linear-gradient-3" x1="56.7" y1="373" x2="279.8" y2="244.1" gradientUnits="userSpaceOnUse">
      <stop offset="0" stop-color="#ff7f00"/>
      <stop offset="1" stop-color="#ffa300"/>
    </linearGradient>
    <linearGradient id="linear-gradient-4" x1="144.9" y1="163.5" x2="270.3" y2="91.1" gradientUnits="userSpaceOnUse">
      <stop offset="0" stop-color="#c12157"/>
      <stop offset="1" stop-color="#ce4500"/>
    </linearGradient>
    <linearGradient id="linear-gradient-5" x1="268.3" y1="237.7" x2="380.5" y2="237.7" xlink:href="#linear-gradient-4"/>
    <linearGradient id="linear-gradient-6" y1="128.3" y2="128.3" xlink:href="#linear-gradient"/>
    <linearGradient id="linear-gradient-7" y1="237.7" y2="237.7" xlink:href="#linear-gradient-2"/>
    <linearGradient id="linear-gradient-8" x1="56.7" y1="373" x2="279.8" y2="244.1" xlink:href="#linear-gradient-3"/>
    <linearGradient id="linear-gradient-9" y1="163.5" x2="270.3" y2="91.1" xlink:href="#linear-gradient-4"/>
    <linearGradient id="linear-gradient-10" x1="268.3" y1="237.7" x2="380.5" y2="237.7" xlink:href="#linear-gradient-4"/>
  </defs>
  <rect class="cls-5" x="597.5" y="251.8" width="30.7" height="60.8"/>
  <rect class="cls-5" x="120.3" y="197.8" width="30.7" height="60.8" transform="translate(363.9 92.5) rotate(90)"/>
  <g>
    <path class="cls-5" d="M268.3,208.8c17,12.4,28.3,30.7,32.6,51V44.5l-66-14.5v164.4c7.5,1.4,14.8,3.9,21.9,7.5,4.1,2.1,7.9,4.4,11.4,7Z"/>
    <polygon class="cls-5" points="300.9 201.6 338.7 201.6 338.7 192.5 300.9 188.5 300.9 201.6"/>
    <polygon class="cls-5" points="416.3 67.4 416.3 196.1 466.6 202.1 466.6 78.6 416.3 67.4"/>
    <polygon class="cls-5" points="393.8 60.9 386.4 59.9 386.4 80.2 393.8 80.2 393.8 60.9"/>
    <polygon class="cls-5" points="341.1 96 416.3 67.4 416.3 196.1 341.1 196.7 341.1 96"/>
    <ellipse class="cls-2" cx="435.3" cy="114.7" rx="14.4" ry="17.9"/>
    <line class="cls-5" x1="245.5" y1="105.7" x2="245.5" y2="104.1"/>
    <line class="cls-5" x1="256.8" y1="107.4" x2="256.8" y2="106.8"/>
    <polygon class="cls-5" points="367.8 67.4 386.4 59.9 386.4 80.2 367.8 87.8 367.8 67.4"/>
    <polygon class="cls-5" points="362.6 78.8 368.4 76.6 368.4 89 362.6 89 362.6 78.8"/>
    <g>
      <polygon class="cls-5" points="426.6 186.8 426.6 179.8 420.3 178.9 420.3 186.2 426.6 186.8"/>
      <polygon class="cls-5" points="439.1 181.6 439.1 188.4 432.8 187.6 432.8 180.7 439.1 181.6"/>
      <polygon class="cls-5" points="451.6 183.4 451.6 189.9 445.4 189.2 445.4 182.5 451.6 183.4"/>
      <polygon class="cls-5" points="424.6 135.4 424.6 157.6 420.4 157 420.4 134.7 424.6 135.4"/>
      <polygon class="cls-5" points="437.4 137.5 437.4 159.7 433.2 159 433.2 136.8 437.4 137.5"/>
      <polygon class="cls-5" points="450.3 139.5 450.3 161.8 446.1 161.1 446.1 138.8 450.3 139.5"/>
      <polygon class="cls-5" points="462.8 141.6 462.8 163.8 458.6 163.2 458.6 140.9 462.8 141.6"/>
      <polygon class="cls-5" points="426.6 172.5 426.6 165.6 420.3 164.7 420.3 172 426.6 172.5"/>
      <polygon class="cls-5" points="439.1 167.4 439.1 174.1 432.8 173.3 432.8 166.5 439.1 167.4"/>
      <polygon class="cls-5" points="451.6 169.2 451.6 175.7 445.4 174.9 445.4 168.3 451.6 169.2"/>
      <polygon class="cls-5" points="462.8 182.1 459.4 181.8 459.4 170.3 462.8 170.6 462.8 182.1"/>
    </g>
    <polygon class="cls-5" points="174.5 243.5 174.5 251 171.1 252.2 171.1 244.8 174.5 243.5"/>
    <line class="cls-5" x1="174.5" y1="243.5" x2="171.1" y2="244.8"/>
    <line class="cls-5" x1="188.2" y1="246.3" x2="184.8" y2="247.5"/>
    <line class="cls-5" x1="195.1" y1="243.9" x2="191.6" y2="245.1"/>
    <line class="cls-5" x1="181.4" y1="248.6" x2="177.9" y2="249.8"/>
    <line class="cls-5" x1="174.5" y1="251" x2="171.1" y2="252.2"/>
    <line class="cls-5" x1="347.7" y1="187.7" x2="343.7" y2="188.7"/>
    <line class="cls-5" x1="372.6" y1="189" x2="368.5" y2="190"/>
    <line class="cls-5" x1="356.3" y1="193.1" x2="352.3" y2="194.1"/>
    <line class="cls-5" x1="364.5" y1="191.1" x2="360.4" y2="192.1"/>
    <line class="cls-5" x1="356.3" y1="199.6" x2="352.3" y2="200.6"/>
    <line class="cls-5" x1="348.2" y1="201.6" x2="344.1" y2="202.6"/>
    <line class="cls-5" x1="380.7" y1="193.8" x2="376.7" y2="194.7"/>
    <line class="cls-5" x1="397" y1="189.9" x2="392.9" y2="190.8"/>
    <line class="cls-5" x1="405.1" y1="187.9" x2="401.1" y2="188.9"/>
    <line class="cls-5" x1="388.9" y1="191.8" x2="384.8" y2="192.8"/>
    <line class="cls-5" x1="364.5" y1="197.7" x2="360.4" y2="198.6"/>
    <line class="cls-5" x1="372.6" y1="195.7" x2="368.5" y2="196.7"/>
    <line class="cls-5" x1="393.6" y1="242.7" x2="386.4" y2="242.1"/>
    <line class="cls-5" x1="422.3" y1="244.9" x2="415.2" y2="244.4"/>
    <line class="cls-5" x1="436.7" y1="246.1" x2="429.5" y2="245.5"/>
    <line class="cls-5" x1="408" y1="243.8" x2="400.7" y2="243.2"/>
    <line class="cls-5" x1="523.1" y1="273.6" x2="515.9" y2="273.2"/>
    <line class="cls-5" x1="494.3" y1="271.8" x2="487.1" y2="271.4"/>
    <line class="cls-5" x1="479.9" y1="271" x2="472.7" y2="270.5"/>
    <line class="cls-5" x1="508.7" y1="272.7" x2="501.5" y2="272.3"/>
    <text class="cls-4" transform="translate(259.2 493.9)"><tspan class="cls-25" x="0" y="0">O</tspan><tspan class="cls-23" x="39.5" y="0">S</tspan><tspan class="cls-24" x="76.5" y="0">L</tspan><tspan class="cls-23" x="109.8" y="0">O</tspan></text>
    <polygon class="cls-5" points="628.2 209.6 380.5 180 380.5 295.5 628.2 295.5 628.2 209.6"/>
    <g>
      <line class="cls-5" x1="451.1" y1="247.2" x2="444" y2="246.7"/>
      <line class="cls-5" x1="479.9" y1="249.5" x2="472.7" y2="248.9"/>
      <line class="cls-5" x1="494.3" y1="250.7" x2="487.1" y2="250.1"/>
      <line class="cls-5" x1="465.5" y1="248.4" x2="458.3" y2="247.8"/>
      <line class="cls-5" x1="465.5" y1="270.1" x2="458.3" y2="269.6"/>
      <line class="cls-5" x1="436.7" y1="268.3" x2="429.5" y2="267.9"/>
      <line class="cls-5" x1="408" y1="266.5" x2="400.7" y2="266.1"/>
      <line class="cls-5" x1="451.1" y1="269.2" x2="444" y2="268.7"/>
      <line class="cls-5" x1="422.3" y1="267.4" x2="415.2" y2="267"/>
      <polygon class="cls-5" points="386.4 242.1 386.4 265.2 393.6 265.7 393.6 242.7 386.4 242.1"/>
      <polygon class="cls-5" points="400.7 243.2 400.7 266.1 408 266.5 408 243.8 400.7 243.2"/>
      <polygon class="cls-5" points="415.2 244.4 415.2 267 422.3 267.4 422.3 244.9 415.2 244.4"/>
      <polygon class="cls-5" points="436.7 246.1 436.7 268.3 429.5 267.9 429.5 245.5 436.7 246.1"/>
      <polygon class="cls-5" points="451.1 247.2 451.1 269.2 444 268.7 444 246.7 451.1 247.2"/>
      <polygon class="cls-5" points="465.5 248.4 465.5 270.1 458.3 269.6 458.3 247.8 465.5 248.4"/>
      <polygon class="cls-5" points="479.9 249.5 479.9 271 472.7 270.5 472.7 248.9 479.9 249.5"/>
      <polygon class="cls-5" points="494.3 250.7 494.3 271.8 487.1 271.4 487.1 250.1 494.3 250.7"/>
      <polygon class="cls-5" points="508.7 251.8 508.7 272.7 501.5 272.3 501.5 251.2 508.7 251.8"/>
      <polygon class="cls-5" points="515.9 252.4 515.9 273.2 523.1 273.6 523.1 252.9 515.9 252.4"/>
      <polygon class="cls-5" points="537.5 254.1 537.5 274.5 530.3 274.1 530.3 253.5 537.5 254.1"/>
      <polygon class="cls-5" points="551.9 255.2 551.9 275.4 544.7 274.9 544.7 254.7 551.9 255.2"/>
      <polygon class="cls-5" points="566.3 256.4 566.3 276.3 559.1 275.8 559.1 255.8 566.3 256.4"/>
      <polygon class="cls-5" points="580.7 257.5 580.7 277.2 573.5 276.7 573.5 256.9 580.7 257.5"/>
      <polygon class="cls-5" points="595.1 258.7 595.1 278 587.9 277.6 587.9 258.1 595.1 258.7"/>
      <polygon class="cls-5" points="609.5 259.8 609.5 278.9 602.3 278.5 602.3 259.2 609.5 259.8"/>
      <polygon class="cls-5" points="623.9 260.9 623.9 279.8 616.7 279.4 616.7 260.4 623.9 260.9"/>
      <line class="cls-5" x1="508.7" y1="251.8" x2="501.5" y2="251.2"/>
      <line class="cls-5" x1="537.5" y1="254.1" x2="530.3" y2="253.5"/>
      <line class="cls-5" x1="566.3" y1="256.4" x2="559.1" y2="255.8"/>
      <line class="cls-5" x1="595.1" y1="258.7" x2="587.9" y2="258.1"/>
      <line class="cls-5" x1="623.9" y1="260.9" x2="616.7" y2="260.4"/>
      <line class="cls-5" x1="609.5" y1="259.8" x2="602.3" y2="259.2"/>
      <line class="cls-5" x1="580.7" y1="257.5" x2="573.5" y2="256.9"/>
      <line class="cls-5" x1="551.9" y1="255.2" x2="544.7" y2="254.7"/>
      <line class="cls-5" x1="523.1" y1="252.9" x2="515.9" y2="252.4"/>
      <line class="cls-5" x1="393.6" y1="265.7" x2="386.4" y2="265.2"/>
    </g>
    <path class="cls-5" d="M235,194.4V30l-64.4,35.8v142.2c19-12.7,42.1-17.8,64.4-13.6Z"/>
    <polygon class="cls-5" points="272.1 143.7 272.1 143.7 280.3 144.9 272.1 143.7"/>
    <g>
      <polygon class="cls-5" points="296.7 196.4 288.5 195.3 288.5 203.3 296.7 204.3 296.7 196.4"/>
      <polygon class="cls-5" points="245 107.3 239.4 106.6 239.4 131 245 131.8 245 107.3"/>
      <polygon class="cls-5" points="262 109.6 256.4 108.9 256.4 133.3 262 134.1 262 109.6"/>
      <polygon class="cls-5" points="279 111.9 273.5 111.1 273.5 135.6 279 136.3 279 111.9"/>
      <polygon class="cls-5" points="295.6 114.2 290 113.4 290 137.9 295.6 138.6 295.6 114.2"/>
      <polygon class="cls-5" points="247.5 140.4 239.3 139.2 239.3 148.4 247.5 149.1 247.5 140.4"/>
      <polygon class="cls-5" points="255.7 141.5 255.7 150.1 263.9 151.1 263.9 142.6 255.7 141.5"/>
      <polygon class="cls-5" points="280.3 144.9 272.1 143.7 272.1 152.1 280.3 153.1 280.3 144.9"/>
      <polygon class="cls-5" points="296.8 147.1 288.5 146 288.5 154.1 296.8 155 296.8 147.1"/>
      <polygon class="cls-5" points="247.4 157.1 239.2 155.9 239.2 165.1 247.4 165.8 247.4 157.1"/>
      <polygon class="cls-5" points="263.9 159.3 255.7 158.2 255.7 166.8 263.9 167.8 263.9 159.3"/>
      <polygon class="cls-5" points="280.3 161.6 272.1 160.5 272.1 168.8 280.3 169.8 280.3 161.6"/>
      <polygon class="cls-5" points="296.7 163.8 288.5 162.7 288.5 170.8 296.7 171.8 296.7 163.8"/>
      <polygon class="cls-5" points="247.4 173.3 239.2 172.1 239.2 181.3 247.4 182 247.4 173.3"/>
      <polygon class="cls-5" points="263.9 175.5 255.7 174.4 255.7 183 263.9 184 263.9 175.5"/>
      <polygon class="cls-5" points="280.3 177.8 272.1 176.6 272.1 185 280.3 186 280.3 177.8"/>
      <polygon class="cls-5" points="296.7 180 288.5 178.9 288.5 187 296.7 188 296.7 180"/>
      <path class="cls-5" d="M247.4,189.6l-8.2-1.1v6.8c2.8.7,5.5,1.5,8.2,2.5v-8.1Z"/>
      <polygon class="cls-5" points="263.9 191.9 255.7 190.8 255.7 199.4 263.9 200.4 263.9 191.9"/>
      <polygon class="cls-5" points="280.3 194.2 272.1 193 272.1 201.4 280.3 202.4 280.3 194.2"/>
    </g>
    <line class="cls-3" x1="263.9" y1="142.6" x2="255.7" y2="141.5"/>
    <line class="cls-3" x1="296.8" y1="147.1" x2="288.5" y2="146"/>
    <line class="cls-3" x1="280.3" y1="144.9" x2="272.1" y2="143.7"/>
    <line class="cls-3" x1="247.5" y1="140.4" x2="239.3" y2="139.2"/>
    <line class="cls-3" x1="239.3" y1="148.4" x2="247.5" y2="149.1"/>
    <line class="cls-3" x1="272.1" y1="152.1" x2="280.3" y2="153.1"/>
    <line class="cls-3" x1="288.5" y1="154.1" x2="296.8" y2="155"/>
    <line class="cls-3" x1="255.7" y1="150.1" x2="263.9" y2="151.1"/>
    <g>
      <path class="cls-5" d="M112.6,260.3s20.1-6.7,20.1-27.7-20.9-19.7-20.9-19.7h-62.3l-19.5,99.8h61.1s5.2-6.1,12.8-10.2c7.2-3.8,17.3-3.6,17.3-3.6,0,0,5.5-4.6,6.9-19,1.5-14.8-15.4-19.7-15.4-19.7ZM89.4,290.6h-25.4l3.5-18.3h23.1s9.9-.9,9.9,7.2-11.1,11.1-11.1,11.1ZM92.6,252.5h-21.2l3.3-17.7h21.4s7.7.5,7.7,6.2c0,10.9-11.2,11.4-11.2,11.4Z"/>
      <path class="cls-5" d="M192.9,325.5c1.6,6.2,3.5,20.4-2.1,36.7-1,3-5.4,14.9-16.7,26.1-21.6,21.5-49.7,21.7-53.5,21.6-4.9,0-27.2-.7-46.9-17-4.5-3.7-16.4-13.6-21.2-29.9-2.4-8.4-2.7-17.2-2.7-20.1-.2-6.9.5-12.8,1.1-17h31.3s-4.6,23.2,8.2,38.2c6.4,7.6,17.3,14.7,30.8,14.7,14.7,0,24.8-7.9,30.4-14.1,7.6-8.5,9.6-18.7,9.5-25.5-.5-25.1-21.7-38.2-21.7-38.2l9.6-46.7s8.5-29.5,39.4-42.4c24.2-10.1,45.6-5.4,59.4,1.4,18.4,9.1,29.3,21.9,35.9,39.7,7.8,21.1,1.6,43.5,1.6,43.5,0,0-6.8-3.5-16-5.6-6.9-1.6-17.2-1.7-17.2-1.7,0,0,4.3-13.4-2.6-26.3-9-16.8-21.9-22.7-36.1-22.7-20.5,0-35.3,14.8-39.3,32.8-3.8,17.1,5.4,26.8,11.9,36.6,2.4,3.6,5.8,11,7,15.9Z"/>
      <circle class="cls-5" cx="214.3" cy="280.4" r="15.1"/>
      <circle class="cls-5" cx="120.6" cy="339.1" r="15.1"/>
      <path class="cls-5" d="M246.3,304.4c17.4.1,24.8,1.8,35.2,8.7l-11.3,22.1c-10.1-8.2-26.9-12.1-34.5-7.9-5.1,2.8-5,9.3-1.5,12.1,6.7,5.2,19.3,3.9,34.2,11.6,5,2.6,11.5,7.9,11.3,19.3-.2,11.8-8.7,23.5-15.2,28-14.4,9.8-32.1,10.2-43.1,9.1-8.1-.8-24.2-6.2-29.8-13.1,0,0,5-6.7,7-9.8,3-4.7,6.1-13.4,6.1-13.4,8.2,8.2,23,15.4,31.9,15.3,9,0,13.4-3.1,13.9-7.6s-3.7-7.4-7.2-8.6c-9.2-3.3-23.2-5-32-11.6-7.5-5.6-7.9-11.5-7.9-20,0-3.5,2.8-11.6,7.5-18.3,0,0,9.3,1.4,20.1-3.3,10.5-4.6,15.3-12.9,15.3-12.9Z"/>
      <path class="cls-5" d="M551,372c8.2,8.2,23,15.4,31.9,15.3,9,0,13.4-3.1,13.9-7.6.7-6.2-3.7-7.4-7.2-8.6-9.2-3.3-23.2-5-32-11.6-7.5-5.6-7.9-11.5-7.9-20,0-3.5,4.5-13.8,7.7-18,7.8-10.3,23.2-16.6,35.2-16.5,17.4.2,25.3,1.8,35.7,8.7l-11.8,22.1c-10.1-8.2-26.9-12.1-34.5-7.9-5.1,2.8-5,9.3-1.5,12.1,6.7,5.2,19.3,3.9,34.2,11.6,5,2.6,11.5,7.9,11.3,19.3-.2,11.8-8.7,23.5-15.2,28-14.4,9.8-32.1,10.2-43.1,9.1-8.1-.8-24.2-6.2-29.8-13.1l13.1-23.2Z"/>
      <polygon class="cls-5" points="305.6 305.9 333 305.9 313.3 406.4 285.4 406.4 305.6 305.9"/>
      <path class="cls-5" d="M427.7,314.3c-9.2-9.2-29.6-8.4-72.8-8.4l-20,100.5c28.2,0,45.4-.5,60.6-3.7,18-3.7,27.9-12.4,36.7-33.4,3.8-9.1,11.2-39.4-4.5-55.1ZM400.1,374.6c-1.2,1.8-3.4,6.2-10.3,8.8-4.4,1.7-11,1.7-22.2,1.7l10.7-59.5c18.1,0,21.9.4,28,8.4,4.7,6.2-.2,31.4-6.1,40.6Z"/>
      <polygon class="cls-5" points="461.3 306.7 541.9 306.7 537.5 326.7 484.5 326.7 481 344.6 529 344.6 525.6 363.9 477.3 363.9 473 384.6 527 384.6 522.9 407.2 441.6 407.2 461.3 306.7"/>
    </g>
    <path class="cls-5" d="M380.5,180l-112.2,28.8c26.6,19.5,39.2,53.4,33.2,86.6h78.9v-115.4Z"/>
  </g>
  <path class="cls-21" d="M268.3,208.8c17,12.4,28.3,30.7,32.6,51V44.5l-66-14.5v164.4c7.5,1.4,14.8,3.9,21.9,7.5,4.1,2.1,7.9,4.4,11.4,7Z"/>
  <polygon class="cls-21" points="300.9 201.6 338.7 201.6 338.7 192.5 300.9 188.5 300.9 201.6"/>
  <polygon class="cls-21" points="416.3 67.4 416.3 196.1 466.6 202.1 466.6 78.6 416.3 67.4"/>
  <polygon class="cls-22" points="393.8 60.9 386.4 59.9 386.4 80.2 393.8 80.2 393.8 60.9"/>
  <ellipse class="cls-17" cx="435.3" cy="114.7" rx="14.4" ry="17.9"/>
  <polygon class="cls-16" points="386.4 78.8 386.4 59.9 367.8 67.4 367.8 76.8 362.6 78.8 362.6 87.8 341.1 96 341.1 196.7 416.3 196.1 416.3 67.4 386.4 78.8"/>
  <g>
    <polygon class="cls-7" points="426.6 186.8 426.6 179.8 420.3 178.9 420.3 186.2 426.6 186.8"/>
    <polygon class="cls-7" points="439.1 181.6 439.1 188.4 432.8 187.6 432.8 180.7 439.1 181.6"/>
    <polygon class="cls-7" points="451.6 183.4 451.6 189.9 445.4 189.2 445.4 182.5 451.6 183.4"/>
    <polygon class="cls-7" points="424.6 135.4 424.6 157.6 420.4 157 420.4 134.7 424.6 135.4"/>
    <polygon class="cls-7" points="437.4 137.5 437.4 159.7 433.2 159 433.2 136.8 437.4 137.5"/>
    <polygon class="cls-7" points="450.3 139.5 450.3 161.8 446.1 161.1 446.1 138.8 450.3 139.5"/>
    <polygon class="cls-7" points="462.8 141.6 462.8 163.8 458.6 163.2 458.6 140.9 462.8 141.6"/>
    <polygon class="cls-7" points="426.6 172.5 426.6 165.6 420.3 164.7 420.3 172 426.6 172.5"/>
    <polygon class="cls-7" points="439.1 167.4 439.1 174.1 432.8 173.3 432.8 166.5 439.1 167.4"/>
    <polygon class="cls-7" points="451.6 169.2 451.6 175.7 445.4 174.9 445.4 168.3 451.6 169.2"/>
    <polygon class="cls-7" points="462.8 182.1 459.4 181.8 459.4 170.3 462.8 170.6 462.8 182.1"/>
  </g>
  <polygon class="cls-20" points="174.5 243.5 174.5 251 171.1 252.2 171.1 244.8 174.5 243.5"/>
  <line class="cls-1" x1="174.5" y1="243.5" x2="171.1" y2="244.8"/>
  <line class="cls-1" x1="188.2" y1="246.3" x2="184.8" y2="247.5"/>
  <line class="cls-1" x1="195.1" y1="243.9" x2="191.6" y2="245.1"/>
  <line class="cls-1" x1="181.4" y1="248.6" x2="177.9" y2="249.8"/>
  <line class="cls-1" x1="174.5" y1="251" x2="171.1" y2="252.2"/>
  <line class="cls-1" x1="347.7" y1="187.7" x2="343.7" y2="188.7"/>
  <line class="cls-1" x1="372.6" y1="189" x2="368.5" y2="190"/>
  <line class="cls-1" x1="356.3" y1="193.1" x2="352.3" y2="194.1"/>
  <line class="cls-1" x1="364.5" y1="191.1" x2="360.4" y2="192.1"/>
  <line class="cls-1" x1="356.3" y1="199.6" x2="352.3" y2="200.6"/>
  <line class="cls-1" x1="348.2" y1="201.6" x2="344.1" y2="202.6"/>
  <line class="cls-1" x1="380.7" y1="193.8" x2="376.7" y2="194.7"/>
  <line class="cls-1" x1="397" y1="189.9" x2="392.9" y2="190.8"/>
  <line class="cls-1" x1="405.1" y1="187.9" x2="401.1" y2="188.9"/>
  <line class="cls-1" x1="388.9" y1="191.8" x2="384.8" y2="192.8"/>
  <line class="cls-1" x1="364.5" y1="197.7" x2="360.4" y2="198.6"/>
  <line class="cls-1" x1="372.6" y1="195.7" x2="368.5" y2="196.7"/>
  <line class="cls-1" x1="393.6" y1="242.7" x2="386.4" y2="242.1"/>
  <line class="cls-1" x1="422.3" y1="244.9" x2="415.2" y2="244.4"/>
  <line class="cls-1" x1="436.7" y1="246.1" x2="429.5" y2="245.5"/>
  <line class="cls-1" x1="408" y1="243.8" x2="400.7" y2="243.2"/>
  <line class="cls-1" x1="523.1" y1="273.6" x2="515.9" y2="273.2"/>
  <line class="cls-1" x1="494.3" y1="271.8" x2="487.1" y2="271.4"/>
  <line class="cls-1" x1="479.9" y1="271" x2="472.7" y2="270.5"/>
  <line class="cls-1" x1="508.7" y1="272.7" x2="501.5" y2="272.3"/>
  <text class="cls-6" transform="translate(259.2 493.9)"><tspan class="cls-25" x="0" y="0">O</tspan><tspan class="cls-23" x="39.5" y="0">S</tspan><tspan class="cls-24" x="76.5" y="0">L</tspan><tspan class="cls-23" x="109.8" y="0">O</tspan></text>
  <polygon class="cls-15" points="628.2 209.6 380.5 180 380.5 295.5 554.3 295.5 628.2 295.5 628.2 209.6"/>
  <g>
    <line class="cls-7" x1="451.1" y1="247.2" x2="444" y2="246.7"/>
    <line class="cls-7" x1="479.9" y1="249.5" x2="472.7" y2="248.9"/>
    <line class="cls-7" x1="494.3" y1="250.7" x2="487.1" y2="250.1"/>
    <line class="cls-7" x1="465.5" y1="248.4" x2="458.3" y2="247.8"/>
    <line class="cls-7" x1="465.5" y1="270.1" x2="458.3" y2="269.6"/>
    <line class="cls-7" x1="436.7" y1="268.3" x2="429.5" y2="267.9"/>
    <line class="cls-7" x1="408" y1="266.5" x2="400.7" y2="266.1"/>
    <line class="cls-7" x1="451.1" y1="269.2" x2="444" y2="268.7"/>
    <line class="cls-7" x1="422.3" y1="267.4" x2="415.2" y2="267"/>
    <polygon class="cls-7" points="386.4 242.1 386.4 265.2 393.6 265.7 393.6 242.7 386.4 242.1"/>
    <polygon class="cls-7" points="400.7 243.2 400.7 266.1 408 266.5 408 243.8 400.7 243.2"/>
    <polygon class="cls-7" points="415.2 244.4 415.2 267 422.3 267.4 422.3 244.9 415.2 244.4"/>
    <polygon class="cls-7" points="436.7 246.1 436.7 268.3 429.5 267.9 429.5 245.5 436.7 246.1"/>
    <polygon class="cls-7" points="451.1 247.2 451.1 269.2 444 268.7 444 246.7 451.1 247.2"/>
    <polygon class="cls-7" points="465.5 248.4 465.5 270.1 458.3 269.6 458.3 247.8 465.5 248.4"/>
    <polygon class="cls-7" points="479.9 249.5 479.9 271 472.7 270.5 472.7 248.9 479.9 249.5"/>
    <polygon class="cls-7" points="494.3 250.7 494.3 271.8 487.1 271.4 487.1 250.1 494.3 250.7"/>
    <polygon class="cls-7" points="508.7 251.8 508.7 272.7 501.5 272.3 501.5 251.2 508.7 251.8"/>
    <polygon class="cls-7" points="515.9 252.4 515.9 273.2 523.1 273.6 523.1 252.9 515.9 252.4"/>
    <polygon class="cls-7" points="537.5 254.1 537.5 274.5 530.3 274.1 530.3 253.5 537.5 254.1"/>
    <polygon class="cls-7" points="551.9 255.2 551.9 275.4 544.7 274.9 544.7 254.7 551.9 255.2"/>
    <polygon class="cls-7" points="566.3 256.4 566.3 276.3 559.1 275.8 559.1 255.8 566.3 256.4"/>
    <polygon class="cls-7" points="580.7 257.5 580.7 277.2 573.5 276.7 573.5 256.9 580.7 257.5"/>
    <polygon class="cls-7" points="595.1 258.7 595.1 278 587.9 277.6 587.9 258.1 595.1 258.7"/>
    <polygon class="cls-7" points="609.5 259.8 609.5 278.9 602.3 278.5 602.3 259.2 609.5 259.8"/>
    <polygon class="cls-7" points="623.9 260.9 623.9 279.8 616.7 279.4 616.7 260.4 623.9 260.9"/>
    <line class="cls-7" x1="508.7" y1="251.8" x2="501.5" y2="251.2"/>
    <line class="cls-7" x1="537.5" y1="254.1" x2="530.3" y2="253.5"/>
    <line class="cls-7" x1="566.3" y1="256.4" x2="559.1" y2="255.8"/>
    <line class="cls-7" x1="595.1" y1="258.7" x2="587.9" y2="258.1"/>
    <line class="cls-7" x1="623.9" y1="260.9" x2="616.7" y2="260.4"/>
    <line class="cls-7" x1="609.5" y1="259.8" x2="602.3" y2="259.2"/>
    <line class="cls-7" x1="580.7" y1="257.5" x2="573.5" y2="256.9"/>
    <line class="cls-7" x1="551.9" y1="255.2" x2="544.7" y2="254.7"/>
    <line class="cls-7" x1="523.1" y1="252.9" x2="515.9" y2="252.4"/>
    <line class="cls-7" x1="393.6" y1="265.7" x2="386.4" y2="265.2"/>
  </g>
  <polygon class="cls-7" points="272.1 143.7 272.1 143.7 280.3 144.9 272.1 143.7"/>
  <g>
    <polygon class="cls-7" points="296.7 196.4 288.5 195.3 288.5 203.3 296.7 204.3 296.7 196.4"/>
    <polygon class="cls-7" points="245 107.3 239.4 106.6 239.4 131 245 131.8 245 107.3"/>
    <polygon class="cls-7" points="262 109.6 256.4 108.9 256.4 133.3 262 134.1 262 109.6"/>
    <polygon class="cls-7" points="279 111.9 273.5 111.1 273.5 135.6 279 136.3 279 111.9"/>
    <polygon class="cls-7" points="295.6 114.2 290 113.4 290 137.9 295.6 138.6 295.6 114.2"/>
    <polygon class="cls-7" points="247.5 140.4 239.3 139.2 239.3 148.4 247.5 149.1 247.5 140.4"/>
    <polygon class="cls-7" points="255.7 141.5 255.7 150.1 263.9 151.1 263.9 142.6 255.7 141.5"/>
    <polygon class="cls-7" points="280.3 144.9 272.1 143.7 272.1 152.1 280.3 153.1 280.3 144.9"/>
    <polygon class="cls-7" points="296.8 147.1 288.5 146 288.5 154.1 296.8 155 296.8 147.1"/>
    <polygon class="cls-7" points="247.4 157.1 239.2 155.9 239.2 165.1 247.4 165.8 247.4 157.1"/>
    <polygon class="cls-7" points="263.9 159.3 255.7 158.2 255.7 166.8 263.9 167.8 263.9 159.3"/>
    <polygon class="cls-7" points="280.3 161.6 272.1 160.5 272.1 168.8 280.3 169.8 280.3 161.6"/>
    <polygon class="cls-7" points="296.7 163.8 288.5 162.7 288.5 170.8 296.7 171.8 296.7 163.8"/>
    <polygon class="cls-7" points="247.4 173.3 239.2 172.1 239.2 181.3 247.4 182 247.4 173.3"/>
    <polygon class="cls-7" points="263.9 175.5 255.7 174.4 255.7 183 263.9 184 263.9 175.5"/>
    <polygon class="cls-7" points="280.3 177.8 272.1 176.6 272.1 185 280.3 186 280.3 177.8"/>
    <polygon class="cls-7" points="296.7 180 288.5 178.9 288.5 187 296.7 188 296.7 180"/>
    <path class="cls-7" d="M247.4,189.6l-8.2-1.1v6.8c2.8.7,5.5,1.5,8.2,2.5v-8.1Z"/>
    <polygon class="cls-7" points="263.9 191.9 255.7 190.8 255.7 199.4 263.9 200.4 263.9 191.9"/>
    <polygon class="cls-7" points="280.3 194.2 272.1 193 272.1 201.4 280.3 202.4 280.3 194.2"/>
  </g>
  <g>
    <path class="cls-18" d="M112.6,260.3s20.1-6.7,20.1-27.7-20.9-19.7-20.9-19.7h-62.3l-19.5,99.8h61.1s5.2-6.1,12.8-10.2c7.2-3.8,17.3-3.6,17.3-3.6,0,0,5.5-4.6,6.9-19,1.5-14.8-15.4-19.7-15.4-19.7ZM89.4,290.6h-25.4l3.5-18.3h23.1s9.9-.9,9.9,7.2-11.1,11.1-11.1,11.1ZM92.6,252.5h-21.2l3.3-17.7h21.4s7.7.5,7.7,6.2c0,10.9-11.2,11.4-11.2,11.4Z"/>
    <path class="cls-14" d="M192.9,325.5c1.6,6.2,3.5,20.4-2.1,36.7-1,3-5.4,14.9-16.7,26.1-21.6,21.5-49.7,21.7-53.5,21.6-4.9,0-27.2-.7-46.9-17-4.5-3.7-16.4-13.6-21.2-29.9-2.4-8.4-2.7-17.2-2.7-20.1-.2-6.9.5-12.8,1.1-17h31.3s-4.6,23.2,8.2,38.2c6.4,7.6,17.3,14.7,30.8,14.7,14.7,0,24.8-7.9,30.4-14.1,7.6-8.5,9.6-18.7,9.5-25.5-.5-25.1-21.7-38.2-21.7-38.2l9.6-46.7s8.5-29.5,39.4-42.4c24.2-10.1,45.6-5.4,59.4,1.4,18.4,9.1,29.3,21.9,35.9,39.7,7.8,21.1,1.6,43.5,1.6,43.5,0,0-6.8-3.5-16-5.6-6.9-1.6-17.2-1.7-17.2-1.7,0,0,4.3-13.4-2.6-26.3-9-16.8-21.9-22.7-36.1-22.7-20.5,0-35.3,14.8-39.3,32.8-3.8,17.1,5.4,26.8,11.9,36.6,2.4,3.6,5.8,11,7,15.9Z"/>
    <circle class="cls-7" cx="214.3" cy="280.4" r="15.1"/>
    <circle class="cls-7" cx="120.6" cy="339.1" r="15.1"/>
    <path class="cls-18" d="M246.3,304.4c17.4.1,24.8,1.8,35.2,8.7l-11.3,22.1c-10.1-8.2-26.9-12.1-34.5-7.9-5.1,2.8-5,9.3-1.5,12.1,6.7,5.2,19.3,3.9,34.2,11.6,5,2.6,11.5,7.9,11.3,19.3-.2,11.8-8.7,23.5-15.2,28-14.4,9.8-32.1,10.2-43.1,9.1-8.1-.8-24.2-6.2-29.8-13.1,0,0,5-6.7,7-9.8,3-4.7,6.1-13.4,6.1-13.4,8.2,8.2,23,15.4,31.9,15.3,9,0,13.4-3.1,13.9-7.6s-3.7-7.4-7.2-8.6c-9.2-3.3-23.2-5-32-11.6-7.5-5.6-7.9-11.5-7.9-20,0-3.5,2.8-11.6,7.5-18.3,0,0,9.3,1.4,20.1-3.3,10.5-4.6,15.3-12.9,15.3-12.9Z"/>
    <path class="cls-18" d="M551,372c8.2,8.2,23,15.4,31.9,15.3,9,0,13.4-3.1,13.9-7.6.7-6.2-3.7-7.4-7.2-8.6-9.2-3.3-23.2-5-32-11.6-7.5-5.6-7.9-11.5-7.9-20,0-3.5,4.5-13.8,7.7-18,7.8-10.3,23.2-16.6,35.2-16.5,17.4.2,25.3,1.8,35.7,8.7l-11.8,22.1c-10.1-8.2-26.9-12.1-34.5-7.9-5.1,2.8-5,9.3-1.5,12.1,6.7,5.2,19.3,3.9,34.2,11.6,5,2.6,11.5,7.9,11.3,19.3-.2,11.8-8.7,23.5-15.2,28-14.4,9.8-32.1,10.2-43.1,9.1-8.1-.8-24.2-6.2-29.8-13.1l13.1-23.2Z"/>
    <polygon class="cls-18" points="305.6 305.9 333 305.9 313.3 406.4 285.4 406.4 305.6 305.9"/>
    <path class="cls-18" d="M427.7,314.3c-9.2-9.2-29.6-8.4-72.8-8.4l-20,100.5c28.2,0,45.4-.5,60.6-3.7,18-3.7,27.9-12.4,36.7-33.4,3.8-9.1,11.2-39.4-4.5-55.1ZM400.1,374.6c-1.2,1.8-3.4,6.2-10.3,8.8-4.4,1.7-11,1.7-22.2,1.7l10.7-59.5c18.1,0,21.9.4,28,8.4,4.7,6.2-.2,31.4-6.1,40.6Z"/>
    <polygon class="cls-18" points="461.3 306.7 541.9 306.7 537.5 326.7 484.5 326.7 481 344.6 529 344.6 525.6 363.9 477.3 363.9 473 384.6 527 384.6 522.9 407.2 441.6 407.2 461.3 306.7"/>
  </g>
  <path class="cls-13" d="M170.6,208c19-12.7,42.1-17.8,64.4-13.6V30l-64.4,35.8v142.2Z"/>
  <path class="cls-10" d="M268.3,208.8c26.6,19.5,39.2,53.4,33.2,86.6h78.9v-115.4l-112.2,28.8Z"/>
  <rect class="cls-5" x="597.5" y="251.8" width="30.7" height="60.8"/>
  <rect class="cls-5" x="120.3" y="197.8" width="30.7" height="60.8" transform="translate(363.9 92.5) rotate(90)"/>
  <g>
    <path class="cls-5" d="M268.3,208.8c17,12.4,28.3,30.7,32.6,51V44.5l-66-14.5v164.4c7.5,1.4,14.8,3.9,21.9,7.5,4.1,2.1,7.9,4.4,11.4,7Z"/>
    <polygon class="cls-5" points="300.9 201.6 338.7 201.6 338.7 192.5 300.9 188.5 300.9 201.6"/>
    <polygon class="cls-5" points="416.3 67.4 416.3 196.1 466.6 202.1 466.6 78.6 416.3 67.4"/>
    <polygon class="cls-5" points="393.8 60.9 386.4 59.9 386.4 80.2 393.8 80.2 393.8 60.9"/>
    <polygon class="cls-5" points="341.1 96 416.3 67.4 416.3 196.1 341.1 196.7 341.1 96"/>
    <ellipse class="cls-2" cx="435.3" cy="114.7" rx="14.4" ry="17.9"/>
    <line class="cls-5" x1="245.5" y1="105.7" x2="245.5" y2="104.1"/>
    <line class="cls-5" x1="256.8" y1="107.4" x2="256.8" y2="106.8"/>
    <polygon class="cls-5" points="367.8 67.4 386.4 59.9 386.4 80.2 367.8 87.8 367.8 67.4"/>
    <polygon class="cls-5" points="362.6 78.8 368.4 76.6 368.4 89 362.6 89 362.6 78.8"/>
    <g>
      <polygon class="cls-5" points="426.6 186.8 426.6 179.8 420.3 178.9 420.3 186.2 426.6 186.8"/>
      <polygon class="cls-5" points="439.1 181.6 439.1 188.4 432.8 187.6 432.8 180.7 439.1 181.6"/>
      <polygon class="cls-5" points="451.6 183.4 451.6 189.9 445.4 189.2 445.4 182.5 451.6 183.4"/>
      <polygon class="cls-5" points="424.6 135.4 424.6 157.6 420.4 157 420.4 134.7 424.6 135.4"/>
      <polygon class="cls-5" points="437.4 137.5 437.4 159.7 433.2 159 433.2 136.8 437.4 137.5"/>
      <polygon class="cls-5" points="450.3 139.5 450.3 161.8 446.1 161.1 446.1 138.8 450.3 139.5"/>
      <polygon class="cls-5" points="462.8 141.6 462.8 163.8 458.6 163.2 458.6 140.9 462.8 141.6"/>
      <polygon class="cls-5" points="426.6 172.5 426.6 165.6 420.3 164.7 420.3 172 426.6 172.5"/>
      <polygon class="cls-5" points="439.1 167.4 439.1 174.1 432.8 173.3 432.8 166.5 439.1 167.4"/>
      <polygon class="cls-5" points="451.6 169.2 451.6 175.7 445.4 174.9 445.4 168.3 451.6 169.2"/>
      <polygon class="cls-5" points="462.8 182.1 459.4 181.8 459.4 170.3 462.8 170.6 462.8 182.1"/>
    </g>
    <polygon class="cls-5" points="174.5 243.5 174.5 251 171.1 252.2 171.1 244.8 174.5 243.5"/>
    <line class="cls-5" x1="174.5" y1="243.5" x2="171.1" y2="244.8"/>
    <line class="cls-5" x1="188.2" y1="246.3" x2="184.8" y2="247.5"/>
    <line class="cls-5" x1="195.1" y1="243.9" x2="191.6" y2="245.1"/>
    <line class="cls-5" x1="181.4" y1="248.6" x2="177.9" y2="249.8"/>
    <line class="cls-5" x1="174.5" y1="251" x2="171.1" y2="252.2"/>
    <line class="cls-5" x1="347.7" y1="187.7" x2="343.7" y2="188.7"/>
    <line class="cls-5" x1="372.6" y1="189" x2="368.5" y2="190"/>
    <line class="cls-5" x1="356.3" y1="193.1" x2="352.3" y2="194.1"/>
    <line class="cls-5" x1="364.5" y1="191.1" x2="360.4" y2="192.1"/>
    <line class="cls-5" x1="356.3" y1="199.6" x2="352.3" y2="200.6"/>
    <line class="cls-5" x1="348.2" y1="201.6" x2="344.1" y2="202.6"/>
    <line class="cls-5" x1="380.7" y1="193.8" x2="376.7" y2="194.7"/>
    <line class="cls-5" x1="397" y1="189.9" x2="392.9" y2="190.8"/>
    <line class="cls-5" x1="405.1" y1="187.9" x2="401.1" y2="188.9"/>
    <line class="cls-5" x1="388.9" y1="191.8" x2="384.8" y2="192.8"/>
    <line class="cls-5" x1="364.5" y1="197.7" x2="360.4" y2="198.6"/>
    <line class="cls-5" x1="372.6" y1="195.7" x2="368.5" y2="196.7"/>
    <line class="cls-5" x1="393.6" y1="242.7" x2="386.4" y2="242.1"/>
    <line class="cls-5" x1="422.3" y1="244.9" x2="415.2" y2="244.4"/>
    <line class="cls-5" x1="436.7" y1="246.1" x2="429.5" y2="245.5"/>
    <line class="cls-5" x1="408" y1="243.8" x2="400.7" y2="243.2"/>
    <line class="cls-5" x1="523.1" y1="273.6" x2="515.9" y2="273.2"/>
    <line class="cls-5" x1="494.3" y1="271.8" x2="487.1" y2="271.4"/>
    <line class="cls-5" x1="479.9" y1="271" x2="472.7" y2="270.5"/>
    <line class="cls-5" x1="508.7" y1="272.7" x2="501.5" y2="272.3"/>
    <text class="cls-4" transform="translate(259.2 493.9)"><tspan class="cls-25" x="0" y="0">O</tspan><tspan class="cls-23" x="39.5" y="0">S</tspan><tspan class="cls-24" x="76.5" y="0">L</tspan><tspan class="cls-23" x="109.8" y="0">O</tspan></text>
    <polygon class="cls-5" points="628.2 209.6 380.5 180 380.5 295.5 628.2 295.5 628.2 209.6"/>
    <g>
      <line class="cls-5" x1="451.1" y1="247.2" x2="444" y2="246.7"/>
      <line class="cls-5" x1="479.9" y1="249.5" x2="472.7" y2="248.9"/>
      <line class="cls-5" x1="494.3" y1="250.7" x2="487.1" y2="250.1"/>
      <line class="cls-5" x1="465.5" y1="248.4" x2="458.3" y2="247.8"/>
      <line class="cls-5" x1="465.5" y1="270.1" x2="458.3" y2="269.6"/>
      <line class="cls-5" x1="436.7" y1="268.3" x2="429.5" y2="267.9"/>
      <line class="cls-5" x1="408" y1="266.5" x2="400.7" y2="266.1"/>
      <line class="cls-5" x1="451.1" y1="269.2" x2="444" y2="268.7"/>
      <line class="cls-5" x1="422.3" y1="267.4" x2="415.2" y2="267"/>
      <polygon class="cls-5" points="386.4 242.1 386.4 265.2 393.6 265.7 393.6 242.7 386.4 242.1"/>
      <polygon class="cls-5" points="400.7 243.2 400.7 266.1 408 266.5 408 243.8 400.7 243.2"/>
      <polygon class="cls-5" points="415.2 244.4 415.2 267 422.3 267.4 422.3 244.9 415.2 244.4"/>
      <polygon class="cls-5" points="436.7 246.1 436.7 268.3 429.5 267.9 429.5 245.5 436.7 246.1"/>
      <polygon class="cls-5" points="451.1 247.2 451.1 269.2 444 268.7 444 246.7 451.1 247.2"/>
      <polygon class="cls-5" points="465.5 248.4 465.5 270.1 458.3 269.6 458.3 247.8 465.5 248.4"/>
      <polygon class="cls-5" points="479.9 249.5 479.9 271 472.7 270.5 472.7 248.9 479.9 249.5"/>
      <polygon class="cls-5" points="494.3 250.7 494.3 271.8 487.1 271.4 487.1 250.1 494.3 250.7"/>
      <polygon class="cls-5" points="508.7 251.8 508.7 272.7 501.5 272.3 501.5 251.2 508.7 251.8"/>
      <polygon class="cls-5" points="515.9 252.4 515.9 273.2 523.1 273.6 523.1 252.9 515.9 252.4"/>
      <polygon class="cls-5" points="537.5 254.1 537.5 274.5 530.3 274.1 530.3 253.5 537.5 254.1"/>
      <polygon class="cls-5" points="551.9 255.2 551.9 275.4 544.7 274.9 544.7 254.7 551.9 255.2"/>
      <polygon class="cls-5" points="566.3 256.4 566.3 276.3 559.1 275.8 559.1 255.8 566.3 256.4"/>
      <polygon class="cls-5" points="580.7 257.5 580.7 277.2 573.5 276.7 573.5 256.9 580.7 257.5"/>
      <polygon class="cls-5" points="595.1 258.7 595.1 278 587.9 277.6 587.9 258.1 595.1 258.7"/>
      <polygon class="cls-5" points="609.5 259.8 609.5 278.9 602.3 278.5 602.3 259.2 609.5 259.8"/>
      <polygon class="cls-5" points="623.9 260.9 623.9 279.8 616.7 279.4 616.7 260.4 623.9 260.9"/>
      <line class="cls-5" x1="508.7" y1="251.8" x2="501.5" y2="251.2"/>
      <line class="cls-5" x1="537.5" y1="254.1" x2="530.3" y2="253.5"/>
      <line class="cls-5" x1="566.3" y1="256.4" x2="559.1" y2="255.8"/>
      <line class="cls-5" x1="595.1" y1="258.7" x2="587.9" y2="258.1"/>
      <line class="cls-5" x1="623.9" y1="260.9" x2="616.7" y2="260.4"/>
      <line class="cls-5" x1="609.5" y1="259.8" x2="602.3" y2="259.2"/>
      <line class="cls-5" x1="580.7" y1="257.5" x2="573.5" y2="256.9"/>
      <line class="cls-5" x1="551.9" y1="255.2" x2="544.7" y2="254.7"/>
      <line class="cls-5" x1="523.1" y1="252.9" x2="515.9" y2="252.4"/>
      <line class="cls-5" x1="393.6" y1="265.7" x2="386.4" y2="265.2"/>
    </g>
    <path class="cls-5" d="M235,194.4V30l-64.4,35.8v142.2c19-12.7,42.1-17.8,64.4-13.6Z"/>
    <polygon class="cls-5" points="272.1 143.7 272.1 143.7 280.3 144.9 272.1 143.7"/>
    <g>
      <polygon class="cls-5" points="296.7 196.4 288.5 195.3 288.5 203.3 296.7 204.3 296.7 196.4"/>
      <polygon class="cls-5" points="245 107.3 239.4 106.6 239.4 131 245 131.8 245 107.3"/>
      <polygon class="cls-5" points="262 109.6 256.4 108.9 256.4 133.3 262 134.1 262 109.6"/>
      <polygon class="cls-5" points="279 111.9 273.5 111.1 273.5 135.6 279 136.3 279 111.9"/>
      <polygon class="cls-5" points="295.6 114.2 290 113.4 290 137.9 295.6 138.6 295.6 114.2"/>
      <polygon class="cls-5" points="247.5 140.4 239.3 139.2 239.3 148.4 247.5 149.1 247.5 140.4"/>
      <polygon class="cls-5" points="255.7 141.5 255.7 150.1 263.9 151.1 263.9 142.6 255.7 141.5"/>
      <polygon class="cls-5" points="280.3 144.9 272.1 143.7 272.1 152.1 280.3 153.1 280.3 144.9"/>
      <polygon class="cls-5" points="296.8 147.1 288.5 146 288.5 154.1 296.8 155 296.8 147.1"/>
      <polygon class="cls-5" points="247.4 157.1 239.2 155.9 239.2 165.1 247.4 165.8 247.4 157.1"/>
      <polygon class="cls-5" points="263.9 159.3 255.7 158.2 255.7 166.8 263.9 167.8 263.9 159.3"/>
      <polygon class="cls-5" points="280.3 161.6 272.1 160.5 272.1 168.8 280.3 169.8 280.3 161.6"/>
      <polygon class="cls-5" points="296.7 163.8 288.5 162.7 288.5 170.8 296.7 171.8 296.7 163.8"/>
      <polygon class="cls-5" points="247.4 173.3 239.2 172.1 239.2 181.3 247.4 182 247.4 173.3"/>
      <polygon class="cls-5" points="263.9 175.5 255.7 174.4 255.7 183 263.9 184 263.9 175.5"/>
      <polygon class="cls-5" points="280.3 177.8 272.1 176.6 272.1 185 280.3 186 280.3 177.8"/>
      <polygon class="cls-5" points="296.7 180 288.5 178.9 288.5 187 296.7 188 296.7 180"/>
      <path class="cls-5" d="M247.4,189.6l-8.2-1.1v6.8c2.8.7,5.5,1.5,8.2,2.5v-8.1Z"/>
      <polygon class="cls-5" points="263.9 191.9 255.7 190.8 255.7 199.4 263.9 200.4 263.9 191.9"/>
      <polygon class="cls-5" points="280.3 194.2 272.1 193 272.1 201.4 280.3 202.4 280.3 194.2"/>
    </g>
    <line class="cls-3" x1="263.9" y1="142.6" x2="255.7" y2="141.5"/>
    <line class="cls-3" x1="296.8" y1="147.1" x2="288.5" y2="146"/>
    <line class="cls-3" x1="280.3" y1="144.9" x2="272.1" y2="143.7"/>
    <line class="cls-3" x1="247.5" y1="140.4" x2="239.3" y2="139.2"/>
    <line class="cls-3" x1="239.3" y1="148.4" x2="247.5" y2="149.1"/>
    <line class="cls-3" x1="272.1" y1="152.1" x2="280.3" y2="153.1"/>
    <line class="cls-3" x1="288.5" y1="154.1" x2="296.8" y2="155"/>
    <line class="cls-3" x1="255.7" y1="150.1" x2="263.9" y2="151.1"/>
    <g>
      <path class="cls-5" d="M112.6,260.3s20.1-6.7,20.1-27.7-20.9-19.7-20.9-19.7h-62.3l-19.5,99.8h61.1s5.2-6.1,12.8-10.2c7.2-3.8,17.3-3.6,17.3-3.6,0,0,5.5-4.6,6.9-19,1.5-14.8-15.4-19.7-15.4-19.7ZM89.4,290.6h-25.4l3.5-18.3h23.1s9.9-.9,9.9,7.2-11.1,11.1-11.1,11.1ZM92.6,252.5h-21.2l3.3-17.7h21.4s7.7.5,7.7,6.2c0,10.9-11.2,11.4-11.2,11.4Z"/>
      <path class="cls-5" d="M192.9,325.5c1.6,6.2,3.5,20.4-2.1,36.7-1,3-5.4,14.9-16.7,26.1-21.6,21.5-49.7,21.7-53.5,21.6-4.9,0-27.2-.7-46.9-17-4.5-3.7-16.4-13.6-21.2-29.9-2.4-8.4-2.7-17.2-2.7-20.1-.2-6.9.5-12.8,1.1-17h31.3s-4.6,23.2,8.2,38.2c6.4,7.6,17.3,14.7,30.8,14.7,14.7,0,24.8-7.9,30.4-14.1,7.6-8.5,9.6-18.7,9.5-25.5-.5-25.1-21.7-38.2-21.7-38.2l9.6-46.7s8.5-29.5,39.4-42.4c24.2-10.1,45.6-5.4,59.4,1.4,18.4,9.1,29.3,21.9,35.9,39.7,7.8,21.1,1.6,43.5,1.6,43.5,0,0-6.8-3.5-16-5.6-6.9-1.6-17.2-1.7-17.2-1.7,0,0,4.3-13.4-2.6-26.3-9-16.8-21.9-22.7-36.1-22.7-20.5,0-35.3,14.8-39.3,32.8-3.8,17.1,5.4,26.8,11.9,36.6s5.8,11,7,15.9Z"/>
      <circle class="cls-5" cx="214.3" cy="280.4" r="15.1"/>
      <circle class="cls-5" cx="120.6" cy="339.1" r="15.1"/>
      <path class="cls-5" d="M246.3,304.4c17.4.1,24.8,1.8,35.2,8.7l-11.3,22.1c-10.1-8.2-26.9-12.1-34.5-7.9-5.1,2.8-5,9.3-1.5,12.1,6.7,5.2,19.3,3.9,34.2,11.6,5,2.6,11.5,7.9,11.3,19.3-.2,11.8-8.7,23.5-15.2,28-14.4,9.8-32.1,10.2-43.1,9.1-8.1-.8-24.2-6.2-29.8-13.1,0,0,5-6.7,7-9.8,3-4.7,6.1-13.4,6.1-13.4,8.2,8.2,23,15.4,31.9,15.3,9,0,13.4-3.1,13.9-7.6s-3.7-7.4-7.2-8.6c-9.2-3.3-23.2-5-32-11.6-7.5-5.6-7.9-11.5-7.9-20,0-3.5,2.8-11.6,7.5-18.3,0,0,9.3,1.4,20.1-3.3,10.5-4.6,15.3-12.9,15.3-12.9Z"/>
      <path class="cls-5" d="M551,372c8.2,8.2,23,15.4,31.9,15.3,9,0,13.4-3.1,13.9-7.6.7-6.2-3.7-7.4-7.2-8.6-9.2-3.3-23.2-5-32-11.6-7.5-5.6-7.9-11.5-7.9-20,0-3.5,4.5-13.8,7.7-18,7.8-10.3,23.2-16.6,35.2-16.5,17.4.2,25.3,1.8,35.7,8.7l-11.8,22.1c-10.1-8.2-26.9-12.1-34.5-7.9-5.1,2.8-5,9.3-1.5,12.1,6.7,5.2,19.3,3.9,34.2,11.6,5,2.6,11.5,7.9,11.3,19.3-.2,11.8-8.7,23.5-15.2,28-14.4,9.8-32.1,10.2-43.1,9.1-8.1-.8-24.2-6.2-29.8-13.1l13.1-23.2Z"/>
      <polygon class="cls-5" points="305.6 305.9 333 305.9 313.3 406.4 285.4 406.4 305.6 305.9"/>
      <path class="cls-5" d="M427.7,314.3c-9.2-9.2-29.6-8.4-72.8-8.4l-20,100.5c28.2,0,45.4-.5,60.6-3.7,18-3.7,27.9-12.4,36.7-33.4,3.8-9.1,11.2-39.4-4.5-55.1ZM400.1,374.6c-1.2,1.8-3.4,6.2-10.3,8.8-4.4,1.7-11,1.7-22.2,1.7l10.7-59.5c18.1,0,21.9.4,28,8.4,4.7,6.2-.2,31.4-6.1,40.6Z"/>
      <polygon class="cls-5" points="461.3 306.7 541.9 306.7 537.5 326.7 484.5 326.7 481 344.6 529 344.6 525.6 363.9 477.3 363.9 473 384.6 527 384.6 522.9 407.2 441.6 407.2 461.3 306.7"/>
    </g>
    <path class="cls-5" d="M380.5,180l-112.2,28.8c26.6,19.5,39.2,53.4,33.2,86.6h78.9v-115.4Z"/>
  </g>
  <path class="cls-21" d="M268.3,208.8c17,12.4,28.3,30.7,32.6,51V44.5l-66-14.5v164.4c7.5,1.4,14.8,3.9,21.9,7.5,4.1,2.1,7.9,4.4,11.4,7Z"/>
  <polygon class="cls-21" points="300.9 201.6 338.7 201.6 338.7 192.5 300.9 188.5 300.9 201.6"/>
  <polygon class="cls-21" points="416.3 67.4 416.3 196.1 466.6 202.1 466.6 78.6 416.3 67.4"/>
  <polygon class="cls-22" points="393.8 60.9 386.4 59.9 386.4 80.2 393.8 80.2 393.8 60.9"/>
  <ellipse class="cls-17" cx="435.3" cy="114.7" rx="14.4" ry="17.9"/>
  <polygon class="cls-11" points="386.4 78.8 386.4 59.9 367.8 67.4 367.8 76.8 362.6 78.8 362.6 87.8 341.1 96 341.1 196.7 416.3 196.1 416.3 67.4 386.4 78.8"/>
  <g>
    <polygon class="cls-7" points="426.6 186.8 426.6 179.8 420.3 178.9 420.3 186.2 426.6 186.8"/>
    <polygon class="cls-7" points="439.1 181.6 439.1 188.4 432.8 187.6 432.8 180.7 439.1 181.6"/>
    <polygon class="cls-7" points="451.6 183.4 451.6 189.9 445.4 189.2 445.4 182.5 451.6 183.4"/>
    <polygon class="cls-7" points="424.6 135.4 424.6 157.6 420.4 157 420.4 134.7 424.6 135.4"/>
    <polygon class="cls-7" points="437.4 137.5 437.4 159.7 433.2 159 433.2 136.8 437.4 137.5"/>
    <polygon class="cls-7" points="450.3 139.5 450.3 161.8 446.1 161.1 446.1 138.8 450.3 139.5"/>
    <polygon class="cls-7" points="462.8 141.6 462.8 163.8 458.6 163.2 458.6 140.9 462.8 141.6"/>
    <polygon class="cls-7" points="426.6 172.5 426.6 165.6 420.3 164.7 420.3 172 426.6 172.5"/>
    <polygon class="cls-7" points="439.1 167.4 439.1 174.1 432.8 173.3 432.8 166.5 439.1 167.4"/>
    <polygon class="cls-7" points="451.6 169.2 451.6 175.7 445.4 174.9 445.4 168.3 451.6 169.2"/>
    <polygon class="cls-7" points="462.8 182.1 459.4 181.8 459.4 170.3 462.8 170.6 462.8 182.1"/>
  </g>
  <polygon class="cls-20" points="174.5 243.5 174.5 251 171.1 252.2 171.1 244.8 174.5 243.5"/>
  <line class="cls-1" x1="174.5" y1="243.5" x2="171.1" y2="244.8"/>
  <line class="cls-1" x1="188.2" y1="246.3" x2="184.8" y2="247.5"/>
  <line class="cls-1" x1="195.1" y1="243.9" x2="191.6" y2="245.1"/>
  <line class="cls-1" x1="181.4" y1="248.6" x2="177.9" y2="249.8"/>
  <line class="cls-1" x1="174.5" y1="251" x2="171.1" y2="252.2"/>
  <line class="cls-1" x1="347.7" y1="187.7" x2="343.7" y2="188.7"/>
  <line class="cls-1" x1="372.6" y1="189" x2="368.5" y2="190"/>
  <line class="cls-1" x1="356.3" y1="193.1" x2="352.3" y2="194.1"/>
  <line class="cls-1" x1="364.5" y1="191.1" x2="360.4" y2="192.1"/>
  <line class="cls-1" x1="356.3" y1="199.6" x2="352.3" y2="200.6"/>
  <line class="cls-1" x1="348.2" y1="201.6" x2="344.1" y2="202.6"/>
  <line class="cls-1" x1="380.7" y1="193.8" x2="376.7" y2="194.7"/>
  <line class="cls-1" x1="397" y1="189.9" x2="392.9" y2="190.8"/>
  <line class="cls-1" x1="405.1" y1="187.9" x2="401.1" y2="188.9"/>
  <line class="cls-1" x1="388.9" y1="191.8" x2="384.8" y2="192.8"/>
  <line class="cls-1" x1="364.5" y1="197.7" x2="360.4" y2="198.6"/>
  <line class="cls-1" x1="372.6" y1="195.7" x2="368.5" y2="196.7"/>
  <line class="cls-1" x1="393.6" y1="242.7" x2="386.4" y2="242.1"/>
  <line class="cls-1" x1="422.3" y1="244.9" x2="415.2" y2="244.4"/>
  <line class="cls-1" x1="436.7" y1="246.1" x2="429.5" y2="245.5"/>
  <line class="cls-1" x1="408" y1="243.8" x2="400.7" y2="243.2"/>
  <line class="cls-1" x1="523.1" y1="273.6" x2="515.9" y2="273.2"/>
  <line class="cls-1" x1="494.3" y1="271.8" x2="487.1" y2="271.4"/>
  <line class="cls-1" x1="479.9" y1="271" x2="472.7" y2="270.5"/>
  <line class="cls-1" x1="508.7" y1="272.7" x2="501.5" y2="272.3"/>
  <g>
    <path class="cls-7" d="M291.3,475.8c0,8.5-.3,10.2-2.2,13.3-2.3,3.6-6.8,5.8-11.8,5.8s-9.4-2.2-11.8-5.8c-1.9-3.1-2.2-4.9-2.2-13.3v-34.8c0-8.4.3-10.2,2.2-13.3,2.3-3.5,6.8-5.7,11.8-5.7s9.4,2.2,11.8,5.7c1.9,3.1,2.2,4.9,2.2,13.3v34.8ZM281.4,437c0-4-1.2-5.7-4.1-5.7s-4.1,1.7-4.1,5.7v43c0,4,1.2,5.7,4.1,5.7s4.1-1.7,4.1-5.7v-43Z"/>
    <path class="cls-7" d="M311.1,473v3.1c0,7.3,1.3,9.7,5.1,9.7s4.5-2.4,4.5-7-1.2-7.4-6-13.9l-4.9-7.2c-6-9.1-8.1-14-8.1-20.3,0-9.3,5.6-15.3,14.5-15.3s11.6,3.8,12.9,10.3c.5,2.7.5,3,.5,8.8l-9.7,1c0-3.6-.1-4.9-.3-6.4-.3-2.9-1.9-4.5-4.1-4.5s-4.1,2.3-4.1,6.6.4,5.3,7,15.2l5,7.2c4.6,6.7,7.1,13.9,7.1,19.9,0,9.4-5.2,14.7-14.4,14.7s-9-1.7-11.8-5.4c-2.3-3.2-3.1-6.2-3.1-12.3s0-2.1.1-3.8l9.8-.4Z"/>
    <path class="cls-7" d="M339.9,423.1h9.9v61.5h14v9.2h-23.9v-70.7Z"/>
    <path class="cls-7" d="M401.1,475.8c0,8.5-.3,10.2-2.2,13.3-2.3,3.6-6.8,5.8-11.8,5.8s-9.4-2.2-11.8-5.8c-1.9-3.1-2.2-4.9-2.2-13.3v-34.8c0-8.4.3-10.2,2.2-13.3,2.3-3.5,6.8-5.7,11.8-5.7s9.4,2.2,11.8,5.7c1.9,3.1,2.2,4.9,2.2,13.3v34.8ZM391.2,437c0-4-1.2-5.7-4.1-5.7s-4.1,1.7-4.1,5.7v43c0,4,1.2,5.7,4.1,5.7s4.1-1.7,4.1-5.7v-43Z"/>
  </g>
  <polygon class="cls-9" points="628.2 209.6 380.5 180 380.5 295.5 554.3 295.5 628.2 295.5 628.2 209.6"/>
  <g>
    <line class="cls-7" x1="451.1" y1="247.2" x2="444" y2="246.7"/>
    <line class="cls-7" x1="479.9" y1="249.5" x2="472.7" y2="248.9"/>
    <line class="cls-7" x1="494.3" y1="250.7" x2="487.1" y2="250.1"/>
    <line class="cls-7" x1="465.5" y1="248.4" x2="458.3" y2="247.8"/>
    <line class="cls-7" x1="465.5" y1="270.1" x2="458.3" y2="269.6"/>
    <line class="cls-7" x1="436.7" y1="268.3" x2="429.5" y2="267.9"/>
    <line class="cls-7" x1="408" y1="266.5" x2="400.7" y2="266.1"/>
    <line class="cls-7" x1="451.1" y1="269.2" x2="444" y2="268.7"/>
    <line class="cls-7" x1="422.3" y1="267.4" x2="415.2" y2="267"/>
    <polygon class="cls-7" points="386.4 242.1 386.4 265.2 393.6 265.7 393.6 242.7 386.4 242.1"/>
    <polygon class="cls-7" points="400.7 243.2 400.7 266.1 408 266.5 408 243.8 400.7 243.2"/>
    <polygon class="cls-7" points="415.2 244.4 415.2 267 422.3 267.4 422.3 244.9 415.2 244.4"/>
    <polygon class="cls-7" points="436.7 246.1 436.7 268.3 429.5 267.9 429.5 245.5 436.7 246.1"/>
    <polygon class="cls-7" points="451.1 247.2 451.1 269.2 444 268.7 444 246.7 451.1 247.2"/>
    <polygon class="cls-7" points="465.5 248.4 465.5 270.1 458.3 269.6 458.3 247.8 465.5 248.4"/>
    <polygon class="cls-7" points="479.9 249.5 479.9 271 472.7 270.5 472.7 248.9 479.9 249.5"/>
    <polygon class="cls-7" points="494.3 250.7 494.3 271.8 487.1 271.4 487.1 250.1 494.3 250.7"/>
    <polygon class="cls-7" points="508.7 251.8 508.7 272.7 501.5 272.3 501.5 251.2 508.7 251.8"/>
    <polygon class="cls-7" points="515.9 252.4 515.9 273.2 523.1 273.6 523.1 252.9 515.9 252.4"/>
    <polygon class="cls-7" points="537.5 254.1 537.5 274.5 530.3 274.1 530.3 253.5 537.5 254.1"/>
    <polygon class="cls-7" points="551.9 255.2 551.9 275.4 544.7 274.9 544.7 254.7 551.9 255.2"/>
    <polygon class="cls-7" points="566.3 256.4 566.3 276.3 559.1 275.8 559.1 255.8 566.3 256.4"/>
    <polygon class="cls-7" points="580.7 257.5 580.7 277.2 573.5 276.7 573.5 256.9 580.7 257.5"/>
    <polygon class="cls-7" points="595.1 258.7 595.1 278 587.9 277.6 587.9 258.1 595.1 258.7"/>
    <polygon class="cls-7" points="609.5 259.8 609.5 278.9 602.3 278.5 602.3 259.2 609.5 259.8"/>
    <polygon class="cls-7" points="623.9 260.9 623.9 279.8 616.7 279.4 616.7 260.4 623.9 260.9"/>
    <line class="cls-7" x1="508.7" y1="251.8" x2="501.5" y2="251.2"/>
    <line class="cls-7" x1="537.5" y1="254.1" x2="530.3" y2="253.5"/>
    <line class="cls-7" x1="566.3" y1="256.4" x2="559.1" y2="255.8"/>
    <line class="cls-7" x1="595.1" y1="258.7" x2="587.9" y2="258.1"/>
    <line class="cls-7" x1="623.9" y1="260.9" x2="616.7" y2="260.4"/>
    <line class="cls-7" x1="609.5" y1="259.8" x2="602.3" y2="259.2"/>
    <line class="cls-7" x1="580.7" y1="257.5" x2="573.5" y2="256.9"/>
    <line class="cls-7" x1="551.9" y1="255.2" x2="544.7" y2="254.7"/>
    <line class="cls-7" x1="523.1" y1="252.9" x2="515.9" y2="252.4"/>
    <line class="cls-7" x1="393.6" y1="265.7" x2="386.4" y2="265.2"/>
  </g>
  <polygon class="cls-7" points="272.1 143.7 272.1 143.7 280.3 144.9 272.1 143.7"/>
  <g>
    <polygon class="cls-7" points="296.7 196.4 288.5 195.3 288.5 203.3 296.7 204.3 296.7 196.4"/>
    <polygon class="cls-7" points="245 107.3 239.4 106.6 239.4 131 245 131.8 245 107.3"/>
    <polygon class="cls-7" points="262 109.6 256.4 108.9 256.4 133.3 262 134.1 262 109.6"/>
    <polygon class="cls-7" points="279 111.9 273.5 111.1 273.5 135.6 279 136.3 279 111.9"/>
    <polygon class="cls-7" points="295.6 114.2 290 113.4 290 137.9 295.6 138.6 295.6 114.2"/>
    <polygon class="cls-7" points="247.5 140.4 239.3 139.2 239.3 148.4 247.5 149.1 247.5 140.4"/>
    <polygon class="cls-7" points="255.7 141.5 255.7 150.1 263.9 151.1 263.9 142.6 255.7 141.5"/>
    <polygon class="cls-7" points="280.3 144.9 272.1 143.7 272.1 152.1 280.3 153.1 280.3 144.9"/>
    <polygon class="cls-7" points="296.8 147.1 288.5 146 288.5 154.1 296.8 155 296.8 147.1"/>
    <polygon class="cls-7" points="247.4 157.1 239.2 155.9 239.2 165.1 247.4 165.8 247.4 157.1"/>
    <polygon class="cls-7" points="263.9 159.3 255.7 158.2 255.7 166.8 263.9 167.8 263.9 159.3"/>
    <polygon class="cls-7" points="280.3 161.6 272.1 160.5 272.1 168.8 280.3 169.8 280.3 161.6"/>
    <polygon class="cls-7" points="296.7 163.8 288.5 162.7 288.5 170.8 296.7 171.8 296.7 163.8"/>
    <polygon class="cls-7" points="247.4 173.3 239.2 172.1 239.2 181.3 247.4 182 247.4 173.3"/>
    <polygon class="cls-7" points="263.9 175.5 255.7 174.4 255.7 183 263.9 184 263.9 175.5"/>
    <polygon class="cls-7" points="280.3 177.8 272.1 176.6 272.1 185 280.3 186 280.3 177.8"/>
    <polygon class="cls-7" points="296.7 180 288.5 178.9 288.5 187 296.7 188 296.7 180"/>
    <path class="cls-7" d="M247.4,189.6l-8.2-1.1v6.8c2.8.7,5.5,1.5,8.2,2.5v-8.1Z"/>
    <polygon class="cls-7" points="263.9 191.9 255.7 190.8 255.7 199.4 263.9 200.4 263.9 191.9"/>
    <polygon class="cls-7" points="280.3 194.2 272.1 193 272.1 201.4 280.3 202.4 280.3 194.2"/>
  </g>
  <g>
    <path class="cls-18" d="M112.6,260.3s20.1-6.7,20.1-27.7-20.9-19.7-20.9-19.7h-62.3l-19.5,99.8h61.1s5.2-6.1,12.8-10.2c7.2-3.8,17.3-3.6,17.3-3.6,0,0,5.5-4.6,6.9-19,1.5-14.8-15.4-19.7-15.4-19.7ZM89.4,290.6h-25.4l3.5-18.3h23.1s9.9-.9,9.9,7.2-11.1,11.1-11.1,11.1ZM92.6,252.5h-21.2l3.3-17.7h21.4s7.7.5,7.7,6.2c0,10.9-11.2,11.4-11.2,11.4Z"/>
    <path class="cls-8" d="M192.9,325.5c1.6,6.2,3.5,20.4-2.1,36.7-1,3-5.4,14.9-16.7,26.1-21.6,21.5-49.7,21.7-53.5,21.6-4.9,0-27.2-.7-46.9-17-4.5-3.7-16.4-13.6-21.2-29.9-2.4-8.4-2.7-17.2-2.7-20.1-.2-6.9.5-12.8,1.1-17h31.3s-4.6,23.2,8.2,38.2c6.4,7.6,17.3,14.7,30.8,14.7,14.7,0,24.8-7.9,30.4-14.1,7.6-8.5,9.6-18.7,9.5-25.5-.5-25.1-21.7-38.2-21.7-38.2l9.6-46.7s8.5-29.5,39.4-42.4c24.2-10.1,45.6-5.4,59.4,1.4,18.4,9.1,29.3,21.9,35.9,39.7,7.8,21.1,1.6,43.5,1.6,43.5,0,0-6.8-3.5-16-5.6-6.9-1.6-17.2-1.7-17.2-1.7,0,0,4.3-13.4-2.6-26.3-9-16.8-21.9-22.7-36.1-22.7-20.5,0-35.3,14.8-39.3,32.8-3.8,17.1,5.4,26.8,11.9,36.6s5.8,11,7,15.9Z"/>
    <circle class="cls-7" cx="214.3" cy="280.4" r="15.1"/>
    <circle class="cls-7" cx="120.6" cy="339.1" r="15.1"/>
    <path class="cls-18" d="M246.3,304.4c17.4.1,24.8,1.8,35.2,8.7l-11.3,22.1c-10.1-8.2-26.9-12.1-34.5-7.9-5.1,2.8-5,9.3-1.5,12.1,6.7,5.2,19.3,3.9,34.2,11.6,5,2.6,11.5,7.9,11.3,19.3-.2,11.8-8.7,23.5-15.2,28-14.4,9.8-32.1,10.2-43.1,9.1-8.1-.8-24.2-6.2-29.8-13.1,0,0,5-6.7,7-9.8,3-4.7,6.1-13.4,6.1-13.4,8.2,8.2,23,15.4,31.9,15.3,9,0,13.4-3.1,13.9-7.6s-3.7-7.4-7.2-8.6c-9.2-3.3-23.2-5-32-11.6-7.5-5.6-7.9-11.5-7.9-20,0-3.5,2.8-11.6,7.5-18.3,0,0,9.3,1.4,20.1-3.3,10.5-4.6,15.3-12.9,15.3-12.9Z"/>
    <path class="cls-18" d="M551,372c8.2,8.2,23,15.4,31.9,15.3,9,0,13.4-3.1,13.9-7.6.7-6.2-3.7-7.4-7.2-8.6-9.2-3.3-23.2-5-32-11.6-7.5-5.6-7.9-11.5-7.9-20,0-3.5,4.5-13.8,7.7-18,7.8-10.3,23.2-16.6,35.2-16.5,17.4.2,25.3,1.8,35.7,8.7l-11.8,22.1c-10.1-8.2-26.9-12.1-34.5-7.9-5.1,2.8-5,9.3-1.5,12.1,6.7,5.2,19.3,3.9,34.2,11.6,5,2.6,11.5,7.9,11.3,19.3-.2,11.8-8.7,23.5-15.2,28-14.4,9.8-32.1,10.2-43.1,9.1-8.1-.8-24.2-6.2-29.8-13.1l13.1-23.2Z"/>
    <polygon class="cls-18" points="305.6 305.9 333 305.9 313.3 406.4 285.4 406.4 305.6 305.9"/>
    <path class="cls-18" d="M427.7,314.3c-9.2-9.2-29.6-8.4-72.8-8.4l-20,100.5c28.2,0,45.4-.5,60.6-3.7,18-3.7,27.9-12.4,36.7-33.4,3.8-9.1,11.2-39.4-4.5-55.1ZM400.1,374.6c-1.2,1.8-3.4,6.2-10.3,8.8-4.4,1.7-11,1.7-22.2,1.7l10.7-59.5c18.1,0,21.9.4,28,8.4,4.7,6.2-.2,31.4-6.1,40.6Z"/>
    <polygon class="cls-18" points="461.3 306.7 541.9 306.7 537.5 326.7 484.5 326.7 481 344.6 529 344.6 525.6 363.9 477.3 363.9 473 384.6 527 384.6 522.9 407.2 441.6 407.2 461.3 306.7"/>
  </g>
  <path class="cls-12" d="M170.6,208c19-12.7,42.1-17.8,64.4-13.6V30l-64.4,35.8v142.2Z"/>
  <path class="cls-19" d="M268.3,208.8c26.6,19.5,39.2,53.4,33.2,86.6h78.9v-115.4l-112.2,28.8Z"/>
</svg>